<?xml version="1.0" encoding="UTF-8"?>
<svg version="1.1" xmlns="http://www.w3.org/2000/svg" width="298" height="420">
<path d="M0 0 C2.41379021 0.0056122 4.8275839 0.00987459 7.24137878 0.01286316 C13.51958052 0.02418426 19.79756591 0.05353813 26.07568359 0.0869751 C32.51201452 0.11795439 38.94838124 0.13142735 45.38476562 0.14648438 C57.9584425 0.17842306 70.53190359 0.23108316 83.10546875 0.29296875 C83.10546875 14.81296875 83.10546875 29.33296875 83.10546875 44.29296875 C76.65886719 44.34195313 70.21226562 44.3909375 63.5703125 44.44140625 C59.43683515 44.47687559 55.30337594 44.51288253 51.16992188 44.55078125 C44.63813158 44.61061998 38.10636606 44.66868408 31.57446289 44.71484375 C26.29640872 44.75226897 21.01849927 44.79876597 15.74057198 44.85103226 C13.74723464 44.86927775 11.75386666 44.88448996 9.76048088 44.89631271 C-0.90741862 44.96172511 -11.50064544 45.29068055 -22.13452148 46.18212891 C-23.05427041 46.25744528 -23.97401934 46.33276165 -24.92163944 46.41036034 C-53.23299236 49.00371837 -80.25563989 60.32125705 -102.89453125 77.29296875 C-103.78011719 77.95425781 -104.66570312 78.61554688 -105.578125 79.296875 C-124.51618407 94.12652898 -138.89176786 112.01529257 -149.89453125 133.29296875 C-150.21405762 133.9060791 -150.53358398 134.51918945 -150.86279297 135.15087891 C-167.10933997 166.76922417 -172.0844953 205.63500929 -163.89453125 240.29296875 C-163.60449219 241.56398437 -163.31445312 242.835 -163.015625 244.14453125 C-152.61696178 286.17427464 -125.85539964 322.09961001 -89.01611328 344.63989258 C-60.23676579 361.66633998 -30.40506177 366.53847489 2.5390625 366.70703125 C4.87175658 366.72577659 7.20444412 366.74535241 9.53712463 366.76571655 C15.62785965 366.81668846 21.71861656 366.85649956 27.80944824 366.89385986 C35.14361112 366.94121959 42.47766833 367.00266543 49.81174469 367.06170654 C60.90960922 367.1494919 72.0074579 367.21956154 83.10546875 367.29296875 C83.10546875 382.47296875 83.10546875 397.65296875 83.10546875 413.29296875 C56.94561199 413.45340399 56.94561199 413.45340399 45.62890625 413.48828125 C37.96472835 413.5120153 30.300745 413.53981479 22.63671875 413.59472656 C16.44449638 413.63880562 10.2524832 413.66223405 4.06011581 413.67247772 C1.7203124 413.6797595 -0.6194821 413.69397104 -2.95919418 413.71588898 C-53.77428744 414.17214135 -102.30836303 397.70220956 -140.89453125 364.29296875 C-141.71050781 363.58785156 -142.52648437 362.88273437 -143.3671875 362.15625 C-154.78004066 352.0818297 -164.83223756 341.50997719 -173.89453125 329.29296875 C-174.53003906 328.44089844 -175.16554687 327.58882813 -175.8203125 326.7109375 C-195.72253199 299.12234359 -207.53717592 267.7694517 -212.89453125 234.29296875 C-213.00579346 233.59792236 -213.11705566 232.90287598 -213.23168945 232.18676758 C-217.29800764 201.91366686 -213.46072009 170.10628124 -203.89453125 141.29296875 C-203.65476563 140.56932129 -203.415 139.84567383 -203.16796875 139.10009766 C-199.65099519 128.71101574 -195.06132145 118.95604966 -189.89453125 109.29296875 C-189.57226562 108.68710938 -189.25 108.08125 -188.91796875 107.45703125 C-163.58410126 60.2907251 -119.01113183 24.00925551 -67.86279297 8.36572266 C-64.84177078 7.50389284 -61.81340706 6.69504912 -58.76953125 5.91796875 C-57.89031006 5.69149658 -57.01108887 5.46502441 -56.10522461 5.23168945 C-37.4767102 0.77991785 -19.08075664 -0.13250678 0 0 Z " fill="#c9a22e" transform="translate(214.89453125,6.70703125)"/>
</svg>
