<?xml version="1.0" encoding="UTF-8"?>
<svg version="1.1" xmlns="http://www.w3.org/2000/svg" width="354" height="420">
<path d="M0 0 C115.83 0 231.66 0 351 0 C351 15.18 351 30.36 351 46 C345.39781242 46.00879936 345.39781242 46.00879936 339.68244934 46.01777649 C305.44920241 46.07292928 271.21601135 46.14287209 236.98282783 46.22898628 C232.49791089 46.24025471 228.01299364 46.25139312 223.52807617 46.26245117 C222.18875277 46.2657567 222.18875277 46.2657567 220.82237234 46.269129 C206.35690629 46.30452037 191.8914403 46.32937411 177.42594699 46.35034702 C162.5876953 46.37209443 147.7494999 46.40513473 132.91129607 46.44870156 C123.75220135 46.47523658 114.59317678 46.49291831 105.43404552 46.49934604 C99.15689823 46.50459427 92.87983929 46.52079219 86.60273931 46.54566566 C82.97887495 46.5597001 79.3551688 46.56884426 75.73127556 46.56500816 C71.80488767 46.56097781 67.87880553 46.57997278 63.95246887 46.60127258 C62.80363954 46.59642501 61.65481021 46.59157743 60.47116786 46.58658296 C59.41967734 46.5960395 58.36818682 46.60549604 57.28483295 46.61523914 C55.92524431 46.61808705 55.92524431 46.61808705 54.53818923 46.62099248 C51.43808007 47.08390701 49.54439269 48.20076366 47 50 C44.84714469 53.07358529 44.74292879 55.72096207 44.7215271 59.4163208 C44.71037558 60.51337971 44.69922405 61.61043861 44.6877346 62.74074173 C44.68556246 63.94423641 44.68339031 65.14773109 44.68115234 66.38769531 C44.66592246 68.32129473 44.66592246 68.32129473 44.6503849 70.29395676 C44.62313574 73.77859044 44.60773848 77.26318194 44.59480286 80.74789429 C44.58086376 84.01866459 44.55622708 87.28934685 44.5324707 90.56005859 C44.46923746 100.1233074 44.42316594 109.68666344 44.375 119.25 C44.25125 140.6175 44.1275 161.985 44 184 C124.85 184 205.7 184 289 184 C289 199.18 289 214.36 289 230 C193.63 230 98.26 230 0 230 C0 154.1 0 78.2 0 0 Z " fill="#c9a22e" transform="translate(0,6)"/>
<path d="M0 0 C14.52 0 29.04 0 44 0 C44 16.17 44 32.34 44 49 C145.31 49 246.62 49 351 49 C351 64.18 351 79.36 351 95 C235.17 95 119.34 95 0 95 C0 63.65 0 32.3 0 0 Z " fill="#c9a22e" transform="translate(0,325)"/>
</svg>
