<?xml version="1.0" standalone="no"?>
<!DOCTYPE svg PUBLIC "-//W3C//DTD SVG 20010904//EN"
 "http://www.w3.org/TR/2001/REC-SVG-20010904/DTD/svg10.dtd">
<svg version="1.0" xmlns="http://www.w3.org/2000/svg"
 width="512.000000pt" height="512.000000pt" viewBox="0 0 512.000000 512.000000"
 preserveAspectRatio="xMidYMid meet">

<g transform="translate(0.000000,512.000000) scale(0.100000,-0.100000)"
fill="#ffffff" stroke="none">
<path d="M1420 5104 c-45 -20 -77 -50 -101 -96 -18 -35 -19 -64 -19 -428 l0
-390 1260 0 1260 0 0 212 0 213 -252 252 -253 253 -930 0 c-808 -1 -935 -3
-965 -16z"/>
<path d="M318 3801 c-149 -48 -264 -168 -302 -316 -24 -89 -24 -1761 0 -1850
27 -106 111 -219 202 -272 96 -57 139 -63 438 -63 l274 0 0 140 0 140 -32 0
c-49 0 -109 19 -144 45 -83 63 -89 200 -12 272 60 56 -52 53 1818 53 1870 0
1758 3 1818 -53 77 -72 71 -209 -12 -272 -35 -26 -95 -45 -143 -45 l-33 0 0
-140 0 -140 274 0 c299 0 342 6 438 63 53 31 125 106 161 167 58 99 57 86 57
1030 0 944 1 931 -57 1030 -61 104 -151 176 -264 211 -59 18 -133 19 -2242 18
-2083 0 -2185 -1 -2239 -18z m4170 -496 c49 -21 81 -52 103 -100 23 -51 23
-89 0 -140 -22 -49 -69 -91 -119 -105 -24 -8 -126 -10 -292 -8 -220 3 -259 5
-287 20 -102 56 -126 214 -44 292 52 50 84 55 354 56 202 0 255 -3 285 -15z"/>
<path d="M1300 865 c0 -684 1 -717 19 -753 24 -47 56 -77 103 -97 33 -13 167
-15 1140 -15 1051 0 1105 1 1143 19 48 22 79 54 100 103 13 33 15 129 15 748
l0 710 -1260 0 -1260 0 0 -715z m2135 416 c47 -22 89 -64 104 -104 28 -74 -2
-166 -71 -213 l-41 -29 -867 0 -867 0 -41 29 c-69 47 -99 139 -71 213 15 40
57 82 104 104 38 18 83 19 875 19 792 0 837 -1 875 -19z m14 -656 c38 -19 77
-66 91 -111 27 -80 -17 -180 -93 -215 -40 -18 -79 -19 -887 -19 l-846 0 -44
23 c-126 63 -132 233 -11 314 l34 23 864 0 c739 0 868 -2 892 -15z"/>
</g>
</svg>
