<?xml version="1.0" encoding="UTF-8" standalone="no" ?>
<!DOCTYPE svg PUBLIC "-//W3C//DTD SVG 1.1//EN" "http://www.w3.org/Graphics/SVG/1.1/DTD/svg11.dtd">
<svg xmlns="http://www.w3.org/2000/svg" xmlns:xlink="http://www.w3.org/1999/xlink" version="1.1" width="251" height="251" viewBox="0 0 251 251" xml:space="preserve">
<desc>Created with Fabric.js 5.2.4</desc>
<defs>
</defs>
<g transform="matrix(1 0 0 1 125.5 125.5)" id="5e33f578-5f1c-4ea8-841a-a29fbaf09af0"  >
<rect style="stroke: none; stroke-width: 1; stroke-dasharray: none; stroke-linecap: butt; stroke-dashoffset: 0; stroke-linejoin: miter; stroke-miterlimit: 4; fill: rgb(255,255,255); fill-rule: nonzero; opacity: 1; visibility: hidden;" vector-effect="non-scaling-stroke"  x="-125.5" y="-125.5" rx="0" ry="0" width="251" height="251" />
</g>
<g transform="matrix(Infinity NaN NaN Infinity 0 0)" id="1be4d772-2857-4258-b3e0-ea060757151b"  >
</g>
<g transform="matrix(0.08 0 0 0.08 107 107)"  >
<g style="" vector-effect="non-scaling-stroke"   >
		<g transform="matrix(1 0 0 1 -0.5 0)"  >
<path style="stroke: none; stroke-width: 1; stroke-dasharray: none; stroke-linecap: butt; stroke-dashoffset: 0; stroke-linejoin: miter; stroke-miterlimit: 4; fill: rgb(254,253,252); fill-rule: nonzero; opacity: 1;" vector-effect="non-scaling-stroke"  transform=" translate(47.32, -210.35)" d="M 0 0 C 4.68040815 0.01898593 9.36082453 0.02053425 14.04126525 0.02407622 C 22.86982107 0.03333324 31.69826302 0.05785936 40.5267691 0.08812469 C 50.59234469 0.12186845 60.65792624 0.13820449 70.72354448 0.153211 C 91.39734386 0.18441599 112.07098753 0.23934681 132.74471068 0.30418181 C 132.74471068 16.47418181 132.74471068 32.64418181 132.74471068 49.30418181 C 125.37457641 49.31820037 125.37457641 49.31820037 117.85555053 49.33250213 C 101.5547723 49.36638905 85.25411852 49.42180534 68.95344138 49.48808455 C 59.07803527 49.52772015 49.20270705 49.56019064 39.32723022 49.57517791 C 30.70943959 49.58827534 22.0918215 49.61544331 13.47412813 49.65879488 C 8.92046673 49.68122973 4.36701668 49.69710347 -0.18670487 49.69606566 C -22.67979483 49.69638937 -44.65193362 49.88579674 -66.13028932 57.55418181 C -67.41431642 57.99806243 -67.41431642 57.99806243 -68.72428346 58.45091033 C -76.27348902 61.14499571 -83.40816509 64.46587536 -90.43497682 68.31004119 C -92.19685598 69.27226919 -93.97588548 70.20288606 -95.75528932 71.13230681 C -113.98774136 80.99440588 -130.73188286 94.79506513 -143.25528932 111.30418181 C -143.65602662 111.8246408 -144.05676393 112.34509978 -144.46964478 112.88133025 C -166.37344275 141.49909987 -176.73228652 175.95971935 -176.63028932 211.80418181 C -176.62908082 212.59409514 -176.62787232 213.38400847 -176.62662721 214.19785857 C -176.57264547 227.24761398 -175.73956266 239.66339809 -172.25528932 252.30418181 C -171.99215943 253.26147185 -171.72902955 254.21876189 -171.45792603 255.20506072 C -159.32931214 297.72728092 -131.70848906 332.22542906 -93.4276526 354.09666228 C -68.89256816 367.73461774 -42.15670976 373.40350095 -14.27067018 373.50950408 C -12.66344928 373.51909746 -11.05623082 373.52910837 -9.4490149 373.53950286 C -5.10879293 373.56639989 -0.76856025 373.58749117 3.57169819 373.60750484 C 8.11607782 373.62945884 12.66042502 373.65680123 17.20477843 373.68356109 C 25.79991618 373.73336125 34.39507205 373.77834681 42.99024504 373.82158345 C 52.77988988 373.87106455 62.56950217 373.92594217 72.35911548 373.98126304 C 92.48761827 374.09488836 112.61615117 374.20105706 132.74471068 374.30418181 C 132.74471068 389.48418181 132.74471068 404.66418181 132.74471068 420.30418181 C 111.15888096 420.3949167 89.57320865 420.46841452 67.98723578 420.5114305 C 57.96166255 420.53194561 47.93621731 420.55985129 37.91072631 420.60593963 C 29.15967687 420.6461496 20.40872025 420.67169461 11.65758097 420.68053579 C 7.03553791 420.68569354 2.41376007 420.697577 -2.20819688 420.72710204 C -30.23098088 420.89893859 -56.41392855 419.21546833 -83.25528932 410.30418181 C -84.31683228 409.95250945 -84.31683228 409.95250945 -85.39982057 409.5937326 C -138.87508389 391.48320484 -181.50879965 351.75414433 -206.68497682 301.68308806 C -214.52718197 285.57076234 -219.55190801 268.80288377 -223.25528932 251.30418181 C -223.43463014 250.48143767 -223.61397096 249.65869353 -223.79874635 248.81101775 C -228.90258411 224.33084256 -228.41623453 195.71707817 -223.25528932 171.30418181 C -223.00585572 170.04976287 -223.00585572 170.04976287 -222.75138307 168.77000213 C -215.96202034 135.11236505 -201.12817162 103.76736867 -179.25528932 77.30418181 C -178.53575074 76.43237273 -178.53575074 76.43237273 -177.80167603 75.54295135 C -168.48303753 64.32523961 -158.72358047 54.36535838 -147.25528932 45.30418181 C -146.29107057 44.51140838 -145.32685182 43.71863494 -144.33341432 42.90183806 C -135.2547808 35.60897637 -125.47305536 29.85959685 -115.25528932 24.30418181 C -114.56000123 23.92487517 -113.86471314 23.54556853 -113.14835572 23.15476775 C -99.06682044 15.56525716 -84.30701591 10.21988299 -68.88028932 6.05418181 C -68.03329469 5.82005584 -67.18630006 5.58592986 -66.31363893 5.34470916 C -44.36104788 -0.31014534 -22.47681434 -0.1068333 0 0 Z" stroke-linecap="round" />
</g>
		<g transform="matrix(1 0 0 1 111.57 47.95)"  >
<path style="stroke: none; stroke-width: 1; stroke-dasharray: none; stroke-linecap: butt; stroke-dashoffset: 0; stroke-linejoin: miter; stroke-miterlimit: 4; fill: rgb(254,254,253); fill-rule: nonzero; opacity: 1;" vector-effect="non-scaling-stroke"  transform=" translate(-69, -68)" d="M 0 0 C 45.54 0 91.08 0 138 0 C 138 44.88 138 89.76 138 136 C 121.5 136 105 136 88 136 C 88 107.29 88 78.58 88 49 C 58.96 49 29.92 49 0 49 C 0 32.83 0 16.66 0 0 Z" stroke-linecap="round" />
</g>
</g>
</g>
</svg>