<?xml version="1.0" encoding="UTF-8" standalone="no"?>
<!-- Generator: Adobe Illustrator 25.1.0, SVG Export Plug-In . SVG Version: 6.00 Build 0)  -->

<svg
   version="1.1"
   x="0px"
   y="0px"
   viewBox="0 0 450.00002 104.43962"
   xml:space="preserve"
   id="svg86"
   sodipodi:docname="logo.svg"
   width="450"
   height="104.43962"
   inkscape:version="1.3.2 (091e20e, 2023-11-25, custom)"
   xmlns:inkscape="http://www.inkscape.org/namespaces/inkscape"
   xmlns:sodipodi="http://sodipodi.sourceforge.net/DTD/sodipodi-0.dtd"
   xmlns="http://www.w3.org/2000/svg"
   xmlns:svg="http://www.w3.org/2000/svg"><defs
   id="defs86">
	
</defs><sodipodi:namedview
   id="namedview86"
   pagecolor="#ffffff"
   bordercolor="#999999"
   borderopacity="1"
   inkscape:showpageshadow="2"
   inkscape:pageopacity="0"
   inkscape:pagecheckerboard="0"
   inkscape:deskcolor="#d1d1d1"
   inkscape:zoom="1.6631529"
   inkscape:cx="153.32324"
   inkscape:cy="36.677325"
   inkscape:window-width="1500"
   inkscape:window-height="912"
   inkscape:window-x="-8"
   inkscape:window-y="-8"
   inkscape:window-maximized="1"
   inkscape:current-layer="svg86" />
<style
   type="text/css"
   id="style1">
	.st0{fill:#88774F;}
	.st1{fill:#00080C;}
	.st2{fill:none;}
</style>
<g
   id="g83"
   transform="matrix(1.5874695,0,0,1.5874695,-27.431473,-27.415598)">
		<g
   id="g72"
   style="display:inline">
			<g
   id="g40">
				<path
   class="st0"
   d="m 90.73,69.07 c -0.07,0 -0.12,-0.04 -0.15,-0.11 L 88.81,65.3 h -0.12 -2.17 c -0.05,0 -0.07,0.02 -0.07,0.07 v 3.58 c 0,0.08 -0.04,0.12 -0.13,0.12 h -0.47 c -0.08,0 -0.13,-0.04 -0.13,-0.12 v -8.2 c 0,-0.08 0.04,-0.12 0.12,-0.12 h 2.84 c 0.8,0 1.44,0.21 1.89,0.62 0.46,0.41 0.68,0.99 0.68,1.71 0,0.59 -0.15,1.07 -0.45,1.46 -0.3,0.39 -0.73,0.64 -1.27,0.78 l 1.84,3.74 c 0.02,0.04 0.03,0.07 0.02,0.1 -0.01,0.02 -0.04,0.04 -0.08,0.04 h -0.58 z m -2.05,-4.45 c 0.6,0 1.06,-0.14 1.39,-0.43 0.32,-0.29 0.48,-0.7 0.48,-1.24 0,-0.53 -0.16,-0.94 -0.48,-1.23 -0.32,-0.29 -0.78,-0.43 -1.39,-0.43 h -2.15 c -0.05,0 -0.07,0.02 -0.07,0.07 v 3.18 c 0,0.05 0.02,0.07 0.07,0.07 h 2.15 z"
   id="path1" />
				<path
   class="st0"
   d="m 96.03,69.19 c -0.7,0 -1.27,-0.16 -1.73,-0.48 -0.46,-0.32 -0.79,-0.79 -1,-1.42 -0.04,-0.11 -0.08,-0.23 -0.11,-0.37 -0.03,-0.14 -0.05,-0.3 -0.07,-0.48 -0.02,-0.19 -0.04,-0.41 -0.05,-0.66 -0.01,-0.26 -0.02,-0.57 -0.02,-0.93 0,-0.36 0.01,-0.67 0.02,-0.93 0.01,-0.26 0.03,-0.48 0.05,-0.66 0.02,-0.19 0.05,-0.35 0.07,-0.48 0.03,-0.13 0.06,-0.26 0.11,-0.37 0.21,-0.62 0.54,-1.09 1,-1.42 0.46,-0.32 1.04,-0.48 1.73,-0.48 0.69,0 1.26,0.16 1.72,0.48 0.46,0.32 0.79,0.79 1,1.42 0.03,0.12 0.07,0.24 0.1,0.37 0.03,0.13 0.06,0.29 0.08,0.48 0.02,0.19 0.04,0.41 0.05,0.66 0.02,0.25 0.02,0.56 0.02,0.92 0,0.36 -0.01,0.68 -0.02,0.93 -0.01,0.26 -0.03,0.48 -0.05,0.66 -0.02,0.19 -0.05,0.35 -0.08,0.48 -0.03,0.14 -0.07,0.26 -0.1,0.37 -0.21,0.62 -0.54,1.09 -1,1.42 -0.46,0.33 -1.03,0.49 -1.72,0.49 z m 2.25,-4.35 c 0,-0.34 -0.01,-0.63 -0.02,-0.88 -0.01,-0.25 -0.03,-0.46 -0.04,-0.63 -0.02,-0.17 -0.04,-0.32 -0.07,-0.43 -0.03,-0.12 -0.06,-0.22 -0.08,-0.3 -0.31,-0.95 -0.99,-1.43 -2.04,-1.43 -1.05,0 -1.73,0.48 -2.05,1.43 -0.02,0.08 -0.05,0.18 -0.08,0.3 -0.03,0.12 -0.05,0.26 -0.07,0.43 -0.02,0.17 -0.03,0.38 -0.04,0.63 -0.01,0.25 -0.02,0.54 -0.02,0.88 0,0.34 0.01,0.63 0.02,0.88 0.01,0.25 0.03,0.46 0.04,0.63 0.02,0.17 0.04,0.32 0.07,0.43 0.03,0.12 0.06,0.22 0.08,0.3 0.31,0.95 1,1.43 2.05,1.43 1.04,0 1.72,-0.48 2.04,-1.43 0.02,-0.08 0.05,-0.18 0.08,-0.3 0.03,-0.12 0.05,-0.26 0.07,-0.43 0.02,-0.17 0.03,-0.38 0.04,-0.63 0.01,-0.25 0.02,-0.54 0.02,-0.88 z"
   id="path2" />
				<path
   class="st0"
   d="m 102.7,69.07 c -0.08,0 -0.13,-0.04 -0.13,-0.12 V 65.6 l -2.53,-4.84 c -0.02,-0.03 -0.01,-0.06 0.01,-0.09 0.02,-0.03 0.05,-0.04 0.09,-0.04 h 0.48 c 0.08,0 0.14,0.04 0.19,0.12 l 2.13,4.04 h 0.04 l 2.09,-4.04 c 0.04,-0.08 0.1,-0.12 0.19,-0.12 h 0.47 c 0.05,0 0.08,0.01 0.1,0.04 0.02,0.03 0.02,0.06 0,0.09 l -2.53,4.84 v 3.34 c 0,0.08 -0.04,0.12 -0.13,0.12 h -0.47 z"
   id="path3" />
				<path
   class="st0"
   d="m 108.78,60.74 c 0.02,-0.08 0.07,-0.12 0.15,-0.12 h 0.45 c 0.07,0 0.12,0.04 0.15,0.12 l 2.93,8.2 c 0.02,0.08 0,0.12 -0.09,0.12 h -0.48 c -0.09,0 -0.15,-0.04 -0.16,-0.12 l -0.75,-2.07 h -3.68 l -0.75,2.07 c -0.03,0.08 -0.09,0.12 -0.16,0.12 h -0.48 c -0.08,0 -0.11,-0.04 -0.09,-0.12 z m 1.96,5.43 -1.58,-4.41 h -0.04 l -1.59,4.41 z"
   id="path4" />
				<path
   class="st0"
   d="m 114.18,60.74 c 0,-0.08 0.04,-0.12 0.13,-0.12 h 0.47 c 0.08,0 0.13,0.04 0.13,0.12 v 7.58 c 0,0.05 0.02,0.07 0.07,0.07 h 4.17 c 0.08,0 0.12,0.04 0.12,0.12 v 0.42 c 0,0.08 -0.04,0.12 -0.12,0.12 h -4.84 c -0.08,0 -0.13,-0.04 -0.13,-0.12 z"
   id="path5" />
				<path
   class="st0"
   d="m 124.1,67.3 c -0.03,-0.11 -0.06,-0.23 -0.09,-0.35 -0.03,-0.13 -0.05,-0.29 -0.07,-0.48 -0.02,-0.19 -0.03,-0.42 -0.04,-0.68 -0.01,-0.26 -0.02,-0.58 -0.02,-0.95 0,-0.37 0.01,-0.69 0.02,-0.95 0.01,-0.26 0.03,-0.49 0.04,-0.68 0.02,-0.19 0.04,-0.35 0.07,-0.48 0.03,-0.13 0.06,-0.25 0.09,-0.35 0.22,-0.64 0.55,-1.11 0.99,-1.42 0.45,-0.31 1.01,-0.47 1.68,-0.47 0.58,0 1.09,0.13 1.53,0.39 0.44,0.26 0.78,0.65 1.02,1.17 0.03,0.07 0.02,0.13 -0.04,0.16 l -0.41,0.2 c -0.07,0.04 -0.12,0.02 -0.16,-0.05 -0.19,-0.36 -0.44,-0.66 -0.75,-0.88 -0.31,-0.22 -0.71,-0.33 -1.19,-0.33 -0.52,0 -0.94,0.12 -1.26,0.35 -0.32,0.24 -0.56,0.59 -0.73,1.05 -0.02,0.08 -0.05,0.18 -0.07,0.3 -0.02,0.12 -0.05,0.26 -0.06,0.43 -0.01,0.17 -0.03,0.38 -0.04,0.63 -0.01,0.25 -0.01,0.55 -0.01,0.91 0,0.36 0,0.66 0.01,0.91 0.01,0.25 0.02,0.46 0.04,0.63 0.02,0.17 0.04,0.32 0.06,0.43 0.02,0.12 0.05,0.22 0.07,0.3 0.17,0.46 0.41,0.81 0.73,1.05 0.32,0.24 0.74,0.35 1.26,0.35 0.48,0 0.88,-0.11 1.19,-0.33 0.31,-0.22 0.56,-0.51 0.75,-0.88 0.04,-0.07 0.09,-0.09 0.16,-0.05 l 0.41,0.2 c 0.06,0.03 0.07,0.09 0.04,0.16 -0.24,0.52 -0.58,0.91 -1.02,1.17 -0.44,0.26 -0.95,0.39 -1.53,0.39 -0.67,0 -1.23,-0.16 -1.68,-0.47 -0.44,-0.27 -0.77,-0.74 -0.99,-1.38 z"
   id="path6" />
				<path
   class="st0"
   d="m 133.85,69.19 c -0.7,0 -1.27,-0.16 -1.73,-0.48 -0.46,-0.32 -0.79,-0.79 -1,-1.42 -0.04,-0.11 -0.08,-0.23 -0.11,-0.37 -0.03,-0.14 -0.05,-0.3 -0.07,-0.48 -0.02,-0.19 -0.04,-0.41 -0.05,-0.66 -0.01,-0.26 -0.02,-0.57 -0.02,-0.93 0,-0.36 0.01,-0.67 0.02,-0.93 0.01,-0.26 0.03,-0.48 0.05,-0.66 0.02,-0.19 0.05,-0.35 0.07,-0.48 0.03,-0.13 0.06,-0.26 0.11,-0.37 0.21,-0.62 0.54,-1.09 1,-1.42 0.46,-0.32 1.04,-0.48 1.73,-0.48 0.69,0 1.26,0.16 1.72,0.48 0.46,0.32 0.79,0.79 1,1.42 0.03,0.12 0.07,0.24 0.1,0.37 0.03,0.13 0.06,0.29 0.08,0.48 0.02,0.19 0.04,0.41 0.05,0.66 0.01,0.26 0.02,0.57 0.02,0.93 0,0.36 -0.01,0.68 -0.02,0.93 -0.01,0.26 -0.03,0.48 -0.05,0.66 -0.02,0.19 -0.05,0.35 -0.08,0.48 -0.03,0.13 -0.07,0.26 -0.1,0.37 -0.21,0.62 -0.54,1.09 -1,1.42 -0.46,0.32 -1.03,0.48 -1.72,0.48 z m 2.25,-4.35 c 0,-0.34 -0.01,-0.63 -0.02,-0.88 -0.01,-0.25 -0.03,-0.46 -0.04,-0.63 -0.02,-0.17 -0.04,-0.32 -0.07,-0.43 -0.03,-0.12 -0.06,-0.22 -0.08,-0.3 -0.31,-0.95 -0.99,-1.43 -2.04,-1.43 -1.05,0 -1.73,0.48 -2.05,1.43 -0.02,0.08 -0.05,0.18 -0.08,0.3 -0.03,0.12 -0.05,0.26 -0.07,0.43 -0.02,0.17 -0.03,0.38 -0.04,0.63 -0.01,0.25 -0.02,0.54 -0.02,0.88 0,0.34 0.01,0.63 0.02,0.88 0.01,0.25 0.03,0.46 0.04,0.63 0.02,0.17 0.04,0.32 0.07,0.43 0.03,0.12 0.06,0.22 0.08,0.3 0.31,0.95 1,1.43 2.05,1.43 1.04,0 1.72,-0.48 2.04,-1.43 0.02,-0.08 0.05,-0.18 0.08,-0.3 0.03,-0.12 0.05,-0.26 0.07,-0.43 0.02,-0.17 0.03,-0.38 0.04,-0.63 0.01,-0.24 0.02,-0.54 0.02,-0.88 z"
   id="path7" />
				<path
   class="st0"
   d="m 138.86,60.74 c 0,-0.08 0.04,-0.12 0.13,-0.12 h 0.48 c 0.09,0 0.16,0.04 0.19,0.12 l 2.74,6.05 h 0.05 l 2.68,-6.05 c 0.03,-0.08 0.09,-0.12 0.18,-0.12 h 0.49 c 0.08,0 0.13,0.04 0.13,0.12 v 8.2 c 0,0.08 -0.04,0.12 -0.13,0.12 h -0.47 c -0.08,0 -0.13,-0.04 -0.13,-0.12 v -6.61 h -0.04 l -2.43,5.35 c -0.02,0.05 -0.05,0.08 -0.08,0.11 -0.03,0.02 -0.08,0.03 -0.14,0.03 h -0.25 c -0.1,0 -0.17,-0.05 -0.21,-0.14 l -2.43,-5.35 h -0.04 v 6.61 c 0,0.08 -0.04,0.12 -0.13,0.12 h -0.47 c -0.08,0 -0.13,-0.04 -0.13,-0.12 v -8.2 z"
   id="path8" />
				<path
   class="st0"
   d="m 148.22,60.74 c 0,-0.08 0.04,-0.12 0.13,-0.12 h 0.48 c 0.09,0 0.16,0.04 0.19,0.12 l 2.74,6.05 h 0.05 l 2.68,-6.05 c 0.03,-0.08 0.09,-0.12 0.18,-0.12 h 0.49 c 0.08,0 0.13,0.04 0.13,0.12 v 8.2 c 0,0.08 -0.04,0.12 -0.13,0.12 h -0.47 c -0.08,0 -0.13,-0.04 -0.13,-0.12 v -6.61 h -0.04 l -2.43,5.35 c -0.02,0.05 -0.05,0.08 -0.08,0.11 -0.03,0.02 -0.08,0.03 -0.14,0.03 h -0.25 c -0.1,0 -0.17,-0.05 -0.21,-0.14 l -2.43,-5.35 h -0.04 v 6.61 c 0,0.08 -0.04,0.12 -0.13,0.12 h -0.47 c -0.08,0 -0.13,-0.04 -0.13,-0.12 v -8.2 z"
   id="path9" />
				<path
   class="st0"
   d="m 157.57,60.74 c 0,-0.08 0.04,-0.12 0.13,-0.12 h 0.47 c 0.08,0 0.13,0.04 0.13,0.12 v 8.2 c 0,0.08 -0.04,0.12 -0.13,0.12 h -0.47 c -0.08,0 -0.13,-0.04 -0.13,-0.12 z"
   id="path10" />
				<path
   class="st0"
   d="m 163.05,69.19 c -0.27,0 -0.55,-0.03 -0.82,-0.08 -0.27,-0.05 -0.53,-0.13 -0.78,-0.22 -0.24,-0.09 -0.47,-0.2 -0.67,-0.32 -0.2,-0.12 -0.38,-0.24 -0.53,-0.37 -0.07,-0.06 -0.07,-0.12 -0.01,-0.17 l 0.3,-0.37 c 0.06,-0.07 0.12,-0.07 0.17,-0.01 0.28,0.22 0.63,0.41 1.05,0.6 0.42,0.18 0.88,0.27 1.37,0.27 0.68,0 1.21,-0.16 1.6,-0.47 0.39,-0.31 0.58,-0.73 0.58,-1.25 0,-0.21 -0.03,-0.4 -0.1,-0.58 -0.07,-0.18 -0.18,-0.34 -0.33,-0.48 -0.15,-0.14 -0.36,-0.26 -0.62,-0.36 -0.26,-0.1 -0.59,-0.17 -0.97,-0.22 l -0.39,-0.05 c -0.83,-0.11 -1.44,-0.35 -1.84,-0.73 -0.4,-0.38 -0.6,-0.88 -0.6,-1.5 0,-0.74 0.24,-1.32 0.72,-1.74 0.48,-0.42 1.13,-0.63 1.94,-0.63 0.47,0 0.92,0.06 1.34,0.19 0.42,0.13 0.78,0.3 1.07,0.52 0.07,0.04 0.08,0.1 0.02,0.17 l -0.25,0.38 c -0.05,0.06 -0.11,0.07 -0.17,0.02 -0.34,-0.21 -0.67,-0.36 -1,-0.47 -0.33,-0.1 -0.68,-0.16 -1.04,-0.16 -0.6,0 -1.07,0.15 -1.41,0.45 -0.33,0.3 -0.5,0.7 -0.5,1.2 0,0.43 0.15,0.78 0.45,1.06 0.3,0.27 0.81,0.46 1.53,0.55 l 0.38,0.05 c 0.86,0.12 1.49,0.37 1.88,0.75 0.39,0.39 0.59,0.89 0.59,1.52 0,0.36 -0.06,0.68 -0.19,0.98 -0.13,0.3 -0.32,0.56 -0.57,0.78 -0.25,0.22 -0.56,0.39 -0.93,0.51 -0.37,0.12 -0.78,0.18 -1.27,0.18 z"
   id="path11" />
				<path
   class="st0"
   d="m 170.49,69.19 c -0.27,0 -0.55,-0.03 -0.82,-0.08 -0.27,-0.05 -0.53,-0.13 -0.78,-0.22 -0.24,-0.09 -0.47,-0.2 -0.67,-0.32 -0.2,-0.12 -0.38,-0.24 -0.53,-0.37 -0.07,-0.06 -0.07,-0.12 -0.01,-0.17 l 0.3,-0.37 c 0.06,-0.07 0.12,-0.07 0.17,-0.01 0.28,0.22 0.63,0.41 1.05,0.6 0.42,0.18 0.88,0.27 1.37,0.27 0.68,0 1.21,-0.16 1.6,-0.47 0.39,-0.31 0.58,-0.73 0.58,-1.25 0,-0.21 -0.03,-0.4 -0.1,-0.58 -0.07,-0.18 -0.18,-0.34 -0.33,-0.48 -0.15,-0.14 -0.36,-0.26 -0.62,-0.36 -0.26,-0.1 -0.59,-0.17 -0.97,-0.22 l -0.39,-0.05 c -0.83,-0.11 -1.44,-0.35 -1.84,-0.73 -0.4,-0.38 -0.6,-0.88 -0.6,-1.5 0,-0.74 0.24,-1.32 0.72,-1.74 0.48,-0.42 1.13,-0.63 1.94,-0.63 0.47,0 0.92,0.06 1.34,0.19 0.42,0.13 0.78,0.3 1.07,0.52 0.07,0.04 0.08,0.1 0.02,0.17 l -0.25,0.38 c -0.05,0.06 -0.11,0.07 -0.17,0.02 -0.34,-0.21 -0.67,-0.36 -1,-0.47 -0.33,-0.1 -0.68,-0.16 -1.04,-0.16 -0.6,0 -1.07,0.15 -1.41,0.45 -0.33,0.3 -0.5,0.7 -0.5,1.2 0,0.43 0.15,0.78 0.45,1.06 0.3,0.27 0.81,0.46 1.53,0.55 l 0.38,0.05 c 0.86,0.12 1.49,0.37 1.88,0.75 0.39,0.39 0.59,0.89 0.59,1.52 0,0.36 -0.06,0.68 -0.19,0.98 -0.13,0.3 -0.32,0.56 -0.57,0.78 -0.25,0.22 -0.56,0.39 -0.93,0.51 -0.37,0.12 -0.78,0.18 -1.27,0.18 z"
   id="path12" />
				<path
   class="st0"
   d="m 175.4,60.74 c 0,-0.08 0.04,-0.12 0.13,-0.12 H 176 c 0.08,0 0.13,0.04 0.13,0.12 v 8.2 c 0,0.08 -0.04,0.12 -0.13,0.12 h -0.47 c -0.08,0 -0.13,-0.04 -0.13,-0.12 z"
   id="path13" />
				<path
   class="st0"
   d="m 181.13,69.19 c -0.7,0 -1.27,-0.16 -1.73,-0.48 -0.46,-0.32 -0.79,-0.79 -1,-1.42 -0.04,-0.11 -0.08,-0.23 -0.11,-0.37 -0.03,-0.14 -0.05,-0.3 -0.07,-0.48 -0.02,-0.19 -0.04,-0.41 -0.05,-0.66 -0.01,-0.26 -0.02,-0.57 -0.02,-0.93 0,-0.36 0.01,-0.67 0.02,-0.93 0.01,-0.26 0.03,-0.48 0.05,-0.66 0.02,-0.19 0.05,-0.35 0.07,-0.48 0.03,-0.13 0.06,-0.26 0.11,-0.37 0.21,-0.62 0.54,-1.09 1,-1.42 0.46,-0.32 1.04,-0.48 1.73,-0.48 0.69,0 1.26,0.16 1.72,0.48 0.46,0.32 0.79,0.79 1,1.42 0.03,0.12 0.07,0.24 0.1,0.37 0.03,0.13 0.06,0.29 0.08,0.48 0.02,0.19 0.04,0.41 0.05,0.66 0.01,0.26 0.02,0.57 0.02,0.93 0,0.36 -0.01,0.68 -0.02,0.93 -0.01,0.26 -0.03,0.48 -0.05,0.66 -0.02,0.19 -0.05,0.35 -0.08,0.48 -0.03,0.14 -0.07,0.26 -0.1,0.37 -0.21,0.62 -0.54,1.09 -1,1.42 -0.46,0.32 -1.03,0.48 -1.72,0.48 z m 2.25,-4.35 c 0,-0.34 -0.01,-0.63 -0.02,-0.88 -0.01,-0.25 -0.03,-0.46 -0.04,-0.63 -0.02,-0.17 -0.04,-0.32 -0.07,-0.43 -0.03,-0.12 -0.06,-0.22 -0.08,-0.3 -0.31,-0.95 -0.99,-1.43 -2.04,-1.43 -1.05,0 -1.74,0.48 -2.05,1.43 -0.02,0.08 -0.05,0.18 -0.08,0.3 -0.03,0.12 -0.05,0.26 -0.07,0.43 -0.02,0.17 -0.03,0.38 -0.04,0.63 -0.01,0.25 -0.02,0.54 -0.02,0.88 0,0.34 0.01,0.63 0.02,0.88 0.01,0.25 0.03,0.46 0.04,0.63 0.02,0.17 0.04,0.32 0.07,0.43 0.03,0.12 0.06,0.22 0.08,0.3 0.31,0.95 1,1.43 2.05,1.43 1.04,0 1.72,-0.48 2.04,-1.43 0.02,-0.08 0.05,-0.18 0.08,-0.3 0.03,-0.12 0.05,-0.26 0.07,-0.43 0.02,-0.17 0.03,-0.38 0.04,-0.63 0.01,-0.24 0.02,-0.54 0.02,-0.88 z"
   id="path14" />
				<path
   class="st0"
   d="m 186.14,60.74 c 0,-0.08 0.04,-0.12 0.13,-0.12 h 0.47 c 0.1,0 0.17,0.04 0.21,0.12 l 4.2,6.94 h 0.04 v -6.94 c 0,-0.08 0.04,-0.12 0.13,-0.12 h 0.47 c 0.08,0 0.13,0.04 0.13,0.12 v 8.2 c 0,0.08 -0.04,0.12 -0.12,0.12 h -0.48 c -0.09,0 -0.16,-0.04 -0.21,-0.12 l -4.17,-6.96 h -0.05 v 6.96 c 0,0.08 -0.04,0.12 -0.13,0.12 h -0.47 c -0.08,0 -0.13,-0.04 -0.13,-0.12 v -8.2 z"
   id="path15" />
				<path
   class="st0"
   d="m 197.7,60.74 c 0,-0.08 0.04,-0.12 0.13,-0.12 h 4.84 c 0.08,0 0.12,0.04 0.12,0.12 v 0.42 c 0,0.08 -0.04,0.12 -0.12,0.12 h -4.17 c -0.05,0 -0.07,0.02 -0.07,0.07 v 3.09 c 0,0.05 0.02,0.07 0.07,0.07 h 3.59 c 0.08,0 0.12,0.04 0.12,0.12 v 0.42 c 0,0.08 -0.04,0.12 -0.12,0.12 h -3.59 c -0.05,0 -0.07,0.02 -0.07,0.07 v 3.66 c 0,0.08 -0.04,0.12 -0.13,0.12 h -0.47 c -0.08,0 -0.13,-0.04 -0.13,-0.12 z"
   id="path16" />
				<path
   class="st0"
   d="m 207.12,69.19 c -0.7,0 -1.27,-0.16 -1.73,-0.48 -0.46,-0.32 -0.79,-0.79 -1,-1.42 -0.04,-0.11 -0.08,-0.23 -0.11,-0.37 -0.03,-0.14 -0.05,-0.3 -0.07,-0.48 -0.02,-0.19 -0.04,-0.41 -0.05,-0.66 -0.01,-0.26 -0.02,-0.57 -0.02,-0.93 0,-0.36 0.01,-0.67 0.02,-0.93 0.01,-0.26 0.03,-0.48 0.05,-0.66 0.02,-0.19 0.05,-0.35 0.07,-0.48 0.03,-0.13 0.06,-0.26 0.11,-0.37 0.21,-0.62 0.54,-1.09 1,-1.42 0.46,-0.32 1.04,-0.48 1.73,-0.48 0.69,0 1.26,0.16 1.72,0.48 0.46,0.32 0.79,0.79 1,1.42 0.03,0.12 0.07,0.24 0.1,0.37 0.03,0.13 0.06,0.29 0.08,0.48 0.02,0.19 0.04,0.41 0.05,0.66 0.01,0.26 0.02,0.57 0.02,0.93 0,0.36 -0.01,0.68 -0.02,0.93 -0.01,0.26 -0.03,0.48 -0.05,0.66 -0.02,0.19 -0.05,0.35 -0.08,0.48 -0.03,0.14 -0.07,0.26 -0.1,0.37 -0.21,0.62 -0.54,1.09 -1,1.42 -0.46,0.32 -1.03,0.48 -1.72,0.48 z m 2.25,-4.35 c 0,-0.34 -0.01,-0.63 -0.02,-0.88 -0.01,-0.25 -0.03,-0.46 -0.04,-0.63 -0.02,-0.17 -0.04,-0.32 -0.07,-0.43 -0.03,-0.12 -0.06,-0.22 -0.08,-0.3 -0.31,-0.95 -0.99,-1.43 -2.04,-1.43 -1.05,0 -1.74,0.48 -2.05,1.43 -0.02,0.08 -0.05,0.18 -0.08,0.3 -0.03,0.12 -0.05,0.26 -0.07,0.43 -0.02,0.17 -0.03,0.38 -0.04,0.63 -0.01,0.25 -0.02,0.54 -0.02,0.88 0,0.34 0.01,0.63 0.02,0.88 0.01,0.25 0.03,0.46 0.04,0.63 0.02,0.17 0.04,0.32 0.07,0.43 0.03,0.12 0.06,0.22 0.08,0.3 0.31,0.95 1,1.43 2.05,1.43 1.04,0 1.72,-0.48 2.04,-1.43 0.02,-0.08 0.05,-0.18 0.08,-0.3 0.03,-0.12 0.05,-0.26 0.07,-0.43 0.02,-0.17 0.03,-0.38 0.04,-0.63 0.01,-0.24 0.02,-0.54 0.02,-0.88 z"
   id="path17" />
				<path
   class="st0"
   d="m 217.13,69.07 c -0.07,0 -0.12,-0.04 -0.15,-0.11 l -1.77,-3.66 h -0.12 -2.17 c -0.05,0 -0.07,0.02 -0.07,0.07 v 3.58 c 0,0.08 -0.04,0.12 -0.13,0.12 h -0.47 c -0.08,0 -0.13,-0.04 -0.13,-0.12 v -8.2 c 0,-0.08 0.04,-0.12 0.12,-0.12 h 2.84 c 0.8,0 1.44,0.21 1.89,0.62 0.46,0.41 0.68,0.99 0.68,1.71 0,0.59 -0.15,1.07 -0.45,1.46 -0.3,0.39 -0.73,0.64 -1.27,0.78 l 1.84,3.74 c 0.02,0.04 0.03,0.07 0.02,0.1 -0.01,0.02 -0.04,0.04 -0.08,0.04 h -0.58 z m -2.06,-4.45 c 0.6,0 1.06,-0.14 1.39,-0.43 0.32,-0.29 0.48,-0.7 0.48,-1.24 0,-0.53 -0.16,-0.94 -0.48,-1.23 -0.32,-0.29 -0.78,-0.43 -1.39,-0.43 h -2.15 c -0.05,0 -0.07,0.02 -0.07,0.07 v 3.18 c 0,0.05 0.02,0.07 0.07,0.07 h 2.15 z"
   id="path18" />
				<path
   class="st0"
   d="m 50.4,74.61 c 0,-0.08 0.04,-0.12 0.13,-0.12 h 0.48 c 0.09,0 0.16,0.04 0.19,0.12 l 2.74,6.05 h 0.05 l 2.68,-6.05 c 0.03,-0.08 0.09,-0.12 0.18,-0.12 h 0.49 c 0.08,0 0.13,0.04 0.13,0.12 v 8.2 c 0,0.08 -0.04,0.12 -0.13,0.12 h -0.47 c -0.08,0 -0.13,-0.04 -0.13,-0.12 V 76.2 H 56.7 l -2.43,5.35 c -0.02,0.05 -0.05,0.08 -0.08,0.11 -0.03,0.02 -0.08,0.03 -0.14,0.03 H 53.8 c -0.1,0 -0.17,-0.05 -0.21,-0.14 L 51.16,76.2 h -0.04 v 6.61 c 0,0.08 -0.04,0.12 -0.13,0.12 h -0.47 c -0.08,0 -0.13,-0.04 -0.13,-0.12 v -8.2 z"
   id="path19" />
				<path
   class="st0"
   d="m 62.14,74.61 c 0.02,-0.08 0.07,-0.12 0.15,-0.12 h 0.45 c 0.07,0 0.12,0.04 0.15,0.12 l 2.93,8.2 c 0.02,0.08 0,0.12 -0.09,0.12 h -0.48 c -0.09,0 -0.15,-0.04 -0.16,-0.12 l -0.75,-2.07 h -3.68 l -0.75,2.07 c -0.03,0.08 -0.09,0.12 -0.16,0.12 h -0.48 c -0.08,0 -0.11,-0.04 -0.09,-0.12 z m 1.96,5.43 -1.58,-4.41 h -0.04 l -1.59,4.41 z"
   id="path20" />
				<path
   class="st0"
   d="m 67.53,74.61 c 0,-0.08 0.04,-0.12 0.13,-0.12 h 0.47 c 0.08,0 0.13,0.04 0.13,0.12 v 4.87 l 4.02,-4.88 c 0.07,-0.07 0.14,-0.11 0.21,-0.11 h 0.58 c 0.04,0 0.07,0.01 0.08,0.04 0.01,0.03 0,0.06 -0.03,0.09 l -2.67,3.19 2.88,4.98 c 0.02,0.04 0.03,0.07 0.02,0.1 -0.01,0.02 -0.04,0.04 -0.08,0.04 h -0.56 c -0.07,0 -0.14,-0.04 -0.19,-0.11 l -2.55,-4.43 -1.73,2.06 v 2.36 c 0,0.08 -0.04,0.12 -0.13,0.12 h -0.47 c -0.08,0 -0.13,-0.04 -0.13,-0.12 v -8.2 z"
   id="path21" />
				<path
   class="st0"
   d="m 75.1,74.61 c 0,-0.08 0.04,-0.12 0.13,-0.12 h 0.47 c 0.08,0 0.13,0.04 0.13,0.12 v 4.87 l 4.02,-4.88 c 0.07,-0.07 0.14,-0.11 0.21,-0.11 h 0.58 c 0.04,0 0.07,0.01 0.08,0.04 0.01,0.03 0,0.06 -0.03,0.09 l -2.67,3.19 2.88,4.98 c 0.02,0.04 0.03,0.07 0.02,0.1 -0.01,0.02 -0.04,0.04 -0.08,0.04 h -0.56 c -0.07,0 -0.14,-0.04 -0.19,-0.11 l -2.55,-4.43 -1.73,2.06 v 2.36 c 0,0.08 -0.04,0.12 -0.13,0.12 h -0.47 c -0.08,0 -0.13,-0.04 -0.13,-0.12 v -8.2 z"
   id="path22" />
				<path
   class="st0"
   d="m 85.25,74.61 c 0.02,-0.08 0.07,-0.12 0.15,-0.12 h 0.45 c 0.07,0 0.12,0.04 0.15,0.12 l 2.93,8.2 c 0.02,0.08 0,0.12 -0.09,0.12 h -0.48 c -0.09,0 -0.15,-0.04 -0.16,-0.12 l -0.75,-2.07 h -3.68 l -0.75,2.07 c -0.03,0.08 -0.09,0.12 -0.16,0.12 h -0.48 c -0.08,0 -0.11,-0.04 -0.09,-0.12 z m 1.96,5.43 -1.58,-4.41 H 85.59 L 84,80.04 Z"
   id="path23" />
				<path
   class="st0"
   d="m 90.65,74.61 c 0,-0.08 0.04,-0.12 0.13,-0.12 h 0.47 c 0.08,0 0.13,0.04 0.13,0.12 v 3.63 c 0,0.05 0.02,0.07 0.07,0.07 h 4.16 c 0.05,0 0.07,-0.02 0.07,-0.07 v -3.63 c 0,-0.08 0.04,-0.12 0.13,-0.12 h 0.47 c 0.08,0 0.13,0.04 0.13,0.12 v 8.2 c 0,0.08 -0.04,0.12 -0.13,0.12 H 95.8 c -0.08,0 -0.13,-0.04 -0.13,-0.12 v -3.75 c 0,-0.05 -0.02,-0.07 -0.07,-0.07 h -4.16 c -0.05,0 -0.07,0.02 -0.07,0.07 v 3.75 c 0,0.08 -0.04,0.12 -0.13,0.12 h -0.47 c -0.08,0 -0.13,-0.04 -0.13,-0.12 v -8.2 z"
   id="path24" />
				<path
   class="st0"
   d="m 102.06,81.17 c -0.03,-0.11 -0.06,-0.23 -0.09,-0.35 -0.03,-0.13 -0.05,-0.29 -0.07,-0.48 -0.02,-0.19 -0.03,-0.42 -0.04,-0.68 -0.01,-0.26 -0.02,-0.58 -0.02,-0.95 0,-0.37 0.01,-0.69 0.02,-0.95 0.01,-0.26 0.03,-0.49 0.04,-0.68 0.02,-0.19 0.04,-0.35 0.07,-0.48 0.03,-0.13 0.06,-0.25 0.09,-0.35 0.22,-0.64 0.55,-1.11 0.99,-1.42 0.45,-0.31 1.01,-0.47 1.68,-0.47 0.58,0 1.09,0.13 1.53,0.39 0.44,0.26 0.78,0.65 1.02,1.17 0.03,0.07 0.02,0.13 -0.04,0.16 l -0.41,0.2 c -0.07,0.04 -0.12,0.02 -0.16,-0.05 -0.19,-0.36 -0.44,-0.66 -0.75,-0.88 -0.31,-0.22 -0.71,-0.33 -1.19,-0.33 -0.52,0 -0.94,0.12 -1.26,0.35 -0.32,0.24 -0.56,0.59 -0.73,1.05 -0.02,0.08 -0.05,0.18 -0.07,0.3 -0.02,0.12 -0.05,0.26 -0.06,0.43 -0.02,0.17 -0.03,0.38 -0.04,0.63 -0.01,0.25 -0.01,0.55 -0.01,0.91 0,0.36 0,0.66 0.01,0.91 0.01,0.25 0.02,0.46 0.04,0.63 0.02,0.17 0.04,0.32 0.06,0.43 0.02,0.12 0.05,0.22 0.07,0.3 0.17,0.46 0.41,0.81 0.73,1.05 0.32,0.24 0.74,0.35 1.26,0.35 0.48,0 0.88,-0.11 1.19,-0.33 0.31,-0.22 0.56,-0.51 0.75,-0.88 0.04,-0.07 0.09,-0.09 0.16,-0.05 l 0.41,0.2 c 0.06,0.03 0.07,0.09 0.04,0.16 -0.24,0.52 -0.58,0.91 -1.02,1.17 -0.44,0.26 -0.95,0.39 -1.53,0.39 -0.67,0 -1.23,-0.16 -1.68,-0.47 -0.44,-0.27 -0.77,-0.74 -0.99,-1.38 z"
   id="path25" />
				<path
   class="st0"
   d="m 109.14,74.61 c 0,-0.08 0.04,-0.12 0.13,-0.12 h 0.47 c 0.08,0 0.13,0.04 0.13,0.12 v 8.2 c 0,0.08 -0.04,0.12 -0.13,0.12 h -0.47 c -0.08,0 -0.13,-0.04 -0.13,-0.12 z"
   id="path26" />
				<path
   class="st0"
   d="m 114.28,82.93 c -0.08,0 -0.13,-0.04 -0.13,-0.12 v -7.58 c 0,-0.05 -0.02,-0.07 -0.07,-0.07 h -2.43 c -0.08,0 -0.12,-0.04 -0.12,-0.12 v -0.42 c 0,-0.08 0.04,-0.12 0.12,-0.12 h 5.74 c 0.08,0 0.12,0.04 0.12,0.12 v 0.42 c 0,0.08 -0.04,0.12 -0.12,0.12 h -2.43 c -0.05,0 -0.07,0.02 -0.07,0.07 v 7.58 c 0,0.08 -0.04,0.12 -0.13,0.12 z"
   id="path27" />
				<path
   class="st0"
   d="m 121.41,82.93 c -0.08,0 -0.13,-0.04 -0.13,-0.12 v -3.34 l -2.53,-4.84 c -0.02,-0.03 -0.01,-0.06 0.01,-0.09 0.02,-0.03 0.05,-0.04 0.09,-0.04 h 0.48 c 0.08,0 0.14,0.04 0.19,0.12 l 2.13,4.04 h 0.04 l 2.09,-4.04 c 0.04,-0.08 0.1,-0.12 0.19,-0.12 h 0.47 c 0.05,0 0.08,0.01 0.1,0.04 0.02,0.03 0.02,0.06 0,0.09 l -2.53,4.84 v 3.34 c 0,0.08 -0.04,0.12 -0.13,0.12 z"
   id="path28" />
				<path
   class="st0"
   d="m 131.66,74.61 c 0.02,-0.08 0.07,-0.12 0.15,-0.12 h 0.45 c 0.07,0 0.12,0.04 0.15,0.12 l 2.93,8.2 c 0.02,0.08 0,0.12 -0.09,0.12 h -0.48 c -0.09,0 -0.15,-0.04 -0.16,-0.12 l -0.75,-2.07 h -3.68 l -0.75,2.07 c -0.03,0.08 -0.09,0.12 -0.16,0.12 h -0.48 c -0.08,0 -0.11,-0.04 -0.09,-0.12 z m 1.96,5.43 -1.58,-4.41 H 132 l -1.59,4.41 z"
   id="path29" />
				<path
   class="st0"
   d="m 137.06,74.61 c 0,-0.08 0.04,-0.12 0.13,-0.12 h 0.47 c 0.1,0 0.17,0.04 0.21,0.12 l 4.2,6.94 h 0.04 v -6.94 c 0,-0.08 0.04,-0.12 0.13,-0.12 h 0.47 c 0.08,0 0.13,0.04 0.13,0.12 v 8.2 c 0,0.08 -0.04,0.12 -0.12,0.12 h -0.48 c -0.09,0 -0.16,-0.04 -0.21,-0.12 l -4.17,-6.96 h -0.05 v 6.96 c 0,0.08 -0.04,0.12 -0.13,0.12 h -0.47 c -0.08,0 -0.13,-0.04 -0.13,-0.12 v -8.2 z"
   id="path30" />
				<path
   class="st0"
   d="m 145.12,74.61 c 0,-0.08 0.04,-0.12 0.12,-0.12 h 2.65 c 1.42,0 2.32,0.57 2.7,1.71 0.04,0.12 0.08,0.25 0.11,0.38 0.03,0.13 0.05,0.29 0.07,0.48 0.02,0.19 0.04,0.41 0.04,0.68 0.01,0.27 0.01,0.59 0.01,0.97 0,0.39 0,0.71 -0.01,0.98 -0.01,0.26 -0.02,0.48 -0.04,0.67 -0.02,0.19 -0.05,0.35 -0.07,0.48 -0.03,0.13 -0.06,0.26 -0.11,0.39 -0.37,1.14 -1.27,1.71 -2.7,1.71 h -2.65 c -0.08,0 -0.12,-0.04 -0.12,-0.12 z m 0.72,7.58 c 0,0.05 0.02,0.07 0.07,0.07 h 1.88 c 0.55,0 0.99,-0.1 1.35,-0.3 0.35,-0.2 0.61,-0.53 0.76,-0.98 0.03,-0.1 0.06,-0.21 0.09,-0.32 0.02,-0.12 0.05,-0.26 0.06,-0.43 0.02,-0.17 0.03,-0.38 0.04,-0.62 0.01,-0.24 0.01,-0.54 0.01,-0.9 0,-0.36 0,-0.66 -0.01,-0.9 -0.01,-0.24 -0.02,-0.45 -0.04,-0.62 -0.02,-0.17 -0.04,-0.31 -0.06,-0.43 -0.02,-0.12 -0.05,-0.22 -0.09,-0.32 -0.15,-0.45 -0.4,-0.77 -0.76,-0.97 -0.35,-0.2 -0.8,-0.3 -1.35,-0.3 h -1.88 c -0.05,0 -0.07,0.02 -0.07,0.07 z"
   id="path31" />
				<path
   class="st0"
   d="m 156.3,74.61 c 0,-0.08 0.04,-0.12 0.13,-0.12 h 0.47 c 0.08,0 0.13,0.04 0.13,0.12 v 3.63 c 0,0.05 0.02,0.07 0.07,0.07 h 4.16 c 0.05,0 0.07,-0.02 0.07,-0.07 v -3.63 c 0,-0.08 0.04,-0.12 0.13,-0.12 h 0.47 c 0.08,0 0.13,0.04 0.13,0.12 v 8.2 c 0,0.08 -0.04,0.12 -0.13,0.12 h -0.47 c -0.08,0 -0.13,-0.04 -0.13,-0.12 v -3.75 c 0,-0.05 -0.02,-0.07 -0.07,-0.07 h -4.16 c -0.05,0 -0.07,0.02 -0.07,0.07 v 3.75 c 0,0.08 -0.04,0.12 -0.13,0.12 h -0.47 c -0.08,0 -0.13,-0.04 -0.13,-0.12 z"
   id="path32" />
				<path
   class="st0"
   d="m 167.06,83.06 c -0.7,0 -1.27,-0.16 -1.73,-0.48 -0.46,-0.32 -0.79,-0.79 -1,-1.42 -0.04,-0.11 -0.08,-0.23 -0.11,-0.37 -0.03,-0.14 -0.05,-0.3 -0.07,-0.48 -0.02,-0.19 -0.04,-0.41 -0.05,-0.66 -0.01,-0.26 -0.02,-0.57 -0.02,-0.93 0,-0.36 0.01,-0.67 0.02,-0.93 0.01,-0.26 0.03,-0.48 0.05,-0.66 0.02,-0.19 0.05,-0.35 0.07,-0.48 0.03,-0.13 0.06,-0.26 0.11,-0.37 0.21,-0.62 0.54,-1.09 1,-1.42 0.46,-0.33 1.04,-0.48 1.73,-0.48 0.69,0 1.26,0.16 1.72,0.48 0.46,0.32 0.79,0.79 1,1.42 0.03,0.12 0.07,0.24 0.1,0.37 0.03,0.13 0.06,0.29 0.08,0.48 0.02,0.19 0.04,0.41 0.05,0.66 0.01,0.26 0.02,0.57 0.02,0.93 0,0.36 -0.01,0.68 -0.02,0.93 -0.01,0.26 -0.03,0.48 -0.05,0.66 -0.02,0.19 -0.05,0.35 -0.08,0.48 -0.03,0.14 -0.07,0.26 -0.1,0.37 -0.21,0.62 -0.54,1.09 -1,1.42 -0.46,0.32 -1.03,0.48 -1.72,0.48 z m 2.25,-4.35 c 0,-0.34 -0.01,-0.63 -0.02,-0.88 -0.01,-0.25 -0.03,-0.46 -0.04,-0.63 -0.02,-0.17 -0.04,-0.32 -0.07,-0.43 -0.03,-0.12 -0.06,-0.22 -0.08,-0.3 -0.31,-0.95 -0.99,-1.43 -2.04,-1.43 -1.05,0 -1.73,0.48 -2.05,1.43 -0.02,0.08 -0.05,0.18 -0.08,0.3 -0.03,0.12 -0.05,0.26 -0.07,0.43 -0.02,0.17 -0.03,0.38 -0.04,0.63 -0.01,0.25 -0.02,0.54 -0.02,0.88 0,0.34 0.01,0.63 0.02,0.88 0.01,0.25 0.03,0.46 0.04,0.63 0.02,0.17 0.04,0.32 0.07,0.43 0.03,0.12 0.06,0.22 0.08,0.3 0.31,0.95 1,1.43 2.05,1.43 1.04,0 1.72,-0.48 2.04,-1.43 0.02,-0.08 0.05,-0.18 0.08,-0.3 0.03,-0.12 0.05,-0.26 0.07,-0.43 0.02,-0.17 0.03,-0.38 0.04,-0.63 0.01,-0.25 0.02,-0.54 0.02,-0.88 z"
   id="path33" />
				<path
   class="st0"
   d="m 172.07,74.61 c 0,-0.08 0.04,-0.12 0.13,-0.12 h 0.47 c 0.08,0 0.13,0.04 0.13,0.12 v 7.58 c 0,0.05 0.02,0.07 0.07,0.07 h 4.17 c 0.08,0 0.12,0.04 0.12,0.12 v 0.42 c 0,0.08 -0.04,0.12 -0.12,0.12 h -4.84 c -0.08,0 -0.13,-0.04 -0.13,-0.12 z"
   id="path34" />
				<path
   class="st0"
   d="m 179.79,82.93 c -0.08,0 -0.13,-0.04 -0.13,-0.12 v -3.34 l -2.53,-4.84 c -0.02,-0.03 -0.01,-0.06 0.01,-0.09 0.02,-0.03 0.05,-0.04 0.09,-0.04 h 0.48 c 0.08,0 0.14,0.04 0.19,0.12 l 2.13,4.04 h 0.04 l 2.09,-4.04 c 0.04,-0.08 0.1,-0.12 0.19,-0.12 h 0.47 c 0.05,0 0.08,0.01 0.1,0.04 0.02,0.03 0.02,0.06 0,0.09 l -2.53,4.84 v 3.34 c 0,0.08 -0.04,0.12 -0.13,0.12 z"
   id="path35" />
				<path
   class="st0"
   d="m 190.3,83.06 c -0.27,0 -0.55,-0.03 -0.82,-0.08 -0.27,-0.05 -0.53,-0.13 -0.78,-0.22 -0.24,-0.09 -0.47,-0.2 -0.67,-0.32 -0.2,-0.12 -0.38,-0.24 -0.53,-0.37 -0.07,-0.06 -0.07,-0.12 -0.01,-0.17 l 0.3,-0.37 c 0.06,-0.07 0.12,-0.07 0.17,-0.01 0.28,0.22 0.63,0.41 1.05,0.6 0.42,0.18 0.88,0.27 1.37,0.27 0.68,0 1.21,-0.16 1.6,-0.47 0.39,-0.31 0.58,-0.73 0.58,-1.25 0,-0.21 -0.03,-0.4 -0.1,-0.58 -0.07,-0.18 -0.18,-0.34 -0.33,-0.48 -0.15,-0.14 -0.36,-0.26 -0.62,-0.36 -0.26,-0.1 -0.59,-0.17 -0.97,-0.22 l -0.38,-0.05 c -0.83,-0.11 -1.44,-0.35 -1.84,-0.73 -0.4,-0.38 -0.6,-0.88 -0.6,-1.5 0,-0.74 0.24,-1.32 0.72,-1.74 0.48,-0.42 1.13,-0.63 1.94,-0.63 0.47,0 0.92,0.06 1.34,0.19 0.42,0.13 0.78,0.3 1.07,0.52 0.07,0.04 0.08,0.1 0.02,0.17 l -0.25,0.38 c -0.05,0.06 -0.11,0.07 -0.17,0.02 -0.34,-0.21 -0.67,-0.36 -1,-0.47 -0.33,-0.1 -0.68,-0.16 -1.04,-0.16 -0.6,0 -1.07,0.15 -1.41,0.45 -0.33,0.3 -0.5,0.7 -0.5,1.2 0,0.43 0.15,0.78 0.45,1.06 0.3,0.27 0.81,0.46 1.53,0.55 l 0.38,0.05 c 0.86,0.12 1.49,0.37 1.88,0.75 0.39,0.39 0.59,0.89 0.59,1.52 0,0.36 -0.06,0.68 -0.19,0.98 -0.13,0.3 -0.32,0.56 -0.57,0.78 -0.25,0.22 -0.56,0.39 -0.93,0.51 -0.37,0.12 -0.79,0.18 -1.28,0.18 z"
   id="path36" />
				<path
   class="st0"
   d="m 195.21,74.61 c 0,-0.08 0.04,-0.12 0.13,-0.12 h 0.47 c 0.08,0 0.13,0.04 0.13,0.12 v 8.2 c 0,0.08 -0.04,0.12 -0.13,0.12 h -0.47 c -0.08,0 -0.13,-0.04 -0.13,-0.12 z"
   id="path37" />
				<path
   class="st0"
   d="m 200.35,82.93 c -0.08,0 -0.13,-0.04 -0.13,-0.12 v -7.58 c 0,-0.05 -0.02,-0.07 -0.07,-0.07 h -2.43 c -0.08,0 -0.12,-0.04 -0.12,-0.12 v -0.42 c 0,-0.08 0.04,-0.12 0.12,-0.12 h 5.74 c 0.08,0 0.12,0.04 0.12,0.12 v 0.42 c 0,0.08 -0.04,0.12 -0.12,0.12 h -2.43 c -0.05,0 -0.07,0.02 -0.07,0.07 v 7.58 c 0,0.08 -0.04,0.12 -0.13,0.12 z"
   id="path38" />
				<path
   class="st0"
   d="m 205.23,74.61 c 0,-0.08 0.04,-0.12 0.13,-0.12 h 4.84 c 0.08,0 0.12,0.04 0.12,0.12 v 0.42 c 0,0.08 -0.04,0.12 -0.12,0.12 h -4.17 c -0.05,0 -0.07,0.02 -0.07,0.07 v 3.01 c 0,0.05 0.02,0.07 0.07,0.07 h 3.59 c 0.08,0 0.12,0.04 0.12,0.12 v 0.42 c 0,0.08 -0.04,0.12 -0.12,0.12 h -3.59 c -0.05,0 -0.07,0.02 -0.07,0.07 v 3.13 c 0,0.05 0.02,0.07 0.07,0.07 h 4.17 c 0.08,0 0.12,0.04 0.12,0.12 v 0.42 c 0,0.08 -0.04,0.12 -0.12,0.12 h -4.84 c -0.08,0 -0.13,-0.04 -0.13,-0.12 z"
   id="path39" />
				<path
   class="st0"
   d="m 214.8,83.06 c -0.27,0 -0.55,-0.03 -0.82,-0.08 -0.27,-0.05 -0.53,-0.13 -0.78,-0.22 -0.24,-0.09 -0.47,-0.2 -0.67,-0.32 -0.2,-0.12 -0.38,-0.24 -0.53,-0.37 -0.07,-0.06 -0.07,-0.12 -0.01,-0.17 l 0.3,-0.37 c 0.06,-0.07 0.12,-0.07 0.17,-0.01 0.28,0.22 0.63,0.41 1.05,0.6 0.42,0.18 0.88,0.27 1.37,0.27 0.68,0 1.21,-0.16 1.6,-0.47 0.39,-0.31 0.58,-0.73 0.58,-1.25 0,-0.21 -0.03,-0.4 -0.1,-0.58 -0.07,-0.18 -0.18,-0.34 -0.33,-0.48 -0.15,-0.14 -0.36,-0.26 -0.62,-0.36 -0.26,-0.1 -0.59,-0.17 -0.97,-0.22 l -0.38,-0.05 c -0.83,-0.11 -1.44,-0.35 -1.84,-0.73 -0.4,-0.38 -0.6,-0.88 -0.6,-1.5 0,-0.74 0.24,-1.32 0.72,-1.74 0.48,-0.42 1.13,-0.63 1.94,-0.63 0.47,0 0.92,0.06 1.34,0.19 0.42,0.13 0.78,0.3 1.07,0.52 0.07,0.04 0.08,0.1 0.02,0.17 l -0.25,0.38 c -0.05,0.06 -0.11,0.07 -0.17,0.02 -0.34,-0.21 -0.67,-0.36 -1,-0.47 -0.33,-0.1 -0.68,-0.16 -1.04,-0.16 -0.6,0 -1.07,0.15 -1.41,0.45 -0.33,0.3 -0.5,0.7 -0.5,1.2 0,0.43 0.15,0.78 0.45,1.06 0.3,0.27 0.81,0.46 1.53,0.55 l 0.38,0.05 c 0.86,0.12 1.49,0.37 1.88,0.75 0.39,0.39 0.59,0.89 0.59,1.52 0,0.36 -0.06,0.68 -0.19,0.98 -0.13,0.3 -0.32,0.56 -0.57,0.78 -0.25,0.22 -0.56,0.39 -0.93,0.51 -0.36,0.12 -0.79,0.18 -1.28,0.18 z"
   id="path40" />
			</g>
			<g
   id="g71">
				<g
   id="g70">
					<path
   class="st1"
   d="m 23.06,18.37 c -0.62,0 -1.13,0.52 -1.13,1.13 0,0.61 0.49,1.13 1.13,1.13 0.62,0 1.13,-0.52 1.13,-1.13 0,-0.62 -0.52,-1.13 -1.13,-1.13 z m -2.78,0 c -0.62,0 -1.12,0.52 -1.12,1.13 0,0.61 0.46,1.13 1.12,1.13 0.64,0 1.13,-0.51 1.13,-1.13 0,-0.64 -0.5,-1.13 -1.13,-1.13 z"
   id="path41" />
					<path
   class="st1"
   d="m 44.47,21.58 c -3.01,0 -4.51,2.01 -4.51,4.21 0,1.23 0.33,2 0.96,2.48 -0.08,-0.02 -0.43,-0.12 -0.96,-0.12 H 37.85 C 37.68,24.82 36.2,23.09 34.01,22.1 l 4.23,-2.56 v -2.27 l -6.87,4.31 v 1.68 c 2.76,0.64 4.15,2.2 4.24,4.89 H 25.52 v -5.97 c 0,0 -1.58,-0.6 -3.64,-0.6 -3.18,0 -4.58,2.08 -4.58,4.35 0,2.47 1.27,4.03 4.63,4.03 h 26.46 v -4.39 c 0,-2.43 -1.21,-3.99 -3.92,-3.99 z M 23.3,28.16 h -1.11 c -1.82,0 -2.6,-0.85 -2.6,-2.43 0,-1.35 0.76,-2.34 2.06,-2.34 0.99,0 1.65,0.31 1.65,0.31 z m 22.85,0 h -1.32 c -1.8,0 -2.6,-0.8 -2.6,-2.43 0,-1.35 0.76,-2.34 2.06,-2.34 1.16,0 1.86,0.73 1.86,2.47 z"
   id="path42" />
					<path
   class="st1"
   d="m 59.93,18.37 c -0.62,0 -1.13,0.52 -1.13,1.13 0,0.61 0.48,1.13 1.13,1.13 0.62,0 1.13,-0.52 1.13,-1.13 -0.01,-0.62 -0.52,-1.13 -1.13,-1.13 z m -2.78,0 c -0.62,0 -1.13,0.52 -1.13,1.13 0,0.61 0.47,1.13 1.13,1.13 0.64,0 1.13,-0.51 1.13,-1.13 0,-0.64 -0.51,-1.13 -1.13,-1.13 z"
   id="path43" />
					<path
   class="st1"
   d="m 71.2,18.36 c -0.64,0 -1.19,0.55 -1.19,1.19 0,0.64 0.53,1.2 1.19,1.2 0.64,0 1.2,-0.53 1.2,-1.2 0,-0.66 -0.56,-1.19 -1.2,-1.19 z"
   id="path44" />
					<path
   class="st1"
   d="m 78.4,31.23 c -0.62,0 -1.13,0.5 -1.13,1.12 0,0.61 0.48,1.13 1.13,1.13 0.62,0 1.13,-0.52 1.13,-1.13 0,-0.62 -0.52,-1.12 -1.13,-1.12 z m -2.78,0 c -0.62,0 -1.13,0.5 -1.13,1.12 0,0.61 0.49,1.13 1.13,1.13 0.62,0 1.13,-0.52 1.13,-1.13 0,-0.62 -0.52,-1.12 -1.13,-1.12 z"
   id="path45" />
					<path
   class="st1"
   d="m 75.92,21.81 v 6.35 h -3.57 v -6.35 h -2.29 v 6.35 h -7.67 v -5.97 c 0,0 -1.58,-0.6 -3.64,-0.6 -3.18,0 -4.58,2.08 -4.58,4.35 0,2.47 1.27,4.03 4.63,4.03 h 19.42 v -8.16 z m -15.75,6.35 h -1.11 c -1.82,0 -2.6,-0.85 -2.6,-2.43 0,-1.35 0.76,-2.34 2.06,-2.34 0.99,0 1.65,0.31 1.65,0.31 z"
   id="path46" />
					<path
   class="st1"
   d="m 101.92,17.73 v 10.43 h -3.17 v -2.58 c 0,-2.43 -1.21,-3.99 -3.92,-3.99 -3.01,0 -4.51,2.01 -4.51,4.21 0,1.79 -0.67,2.36 -1.72,2.36 h -0.83 c -0.21,-3.87 -2.2,-5.83 -5.78,-6.77 l -0.55,1.91 c 2.74,0.69 3.99,2.29 4.09,4.85 H 80.4 v 1.81 h 8.45 c 1.46,0 2.15,-0.54 2.47,-1.34 0.61,0.8 1.39,1.34 3.88,1.34 h 9.02 V 17.73 Z m -5.4,10.43 H 95.2 c -1.8,0 -2.6,-0.8 -2.6,-2.43 0,-1.35 0.76,-2.34 2.06,-2.34 1.16,0 1.86,0.73 1.86,2.47 z"
   id="path47" />
					<path
   class="st1"
   d="m 116.03,18.37 c -0.62,0 -1.12,0.52 -1.12,1.13 0,0.61 0.48,1.13 1.12,1.13 0.63,0 1.13,-0.52 1.13,-1.13 0,-0.62 -0.52,-1.13 -1.13,-1.13 z m -2.78,0 c -0.62,0 -1.12,0.52 -1.12,1.13 0,0.61 0.46,1.13 1.12,1.13 0.64,0 1.13,-0.51 1.13,-1.13 0,-0.64 -0.5,-1.13 -1.13,-1.13 z"
   id="path48" />
					<path
   class="st1"
   d="m 125.49,31.23 c -0.63,0 -1.13,0.5 -1.13,1.12 0,0.61 0.48,1.13 1.13,1.13 0.62,0 1.12,-0.52 1.12,-1.13 0,-0.62 -0.52,-1.12 -1.12,-1.12 z m 2.78,0 c -0.63,0 -1.13,0.5 -1.13,1.12 0,0.61 0.48,1.13 1.13,1.13 0.62,0 1.12,-0.52 1.12,-1.13 0,-0.62 -0.52,-1.12 -1.12,-1.12 z"
   id="path49" />
					<path
   class="st1"
   d="m 156.77,17.73 v 10.43 h -3.18 v -2.58 c 0,-2.43 -1.21,-3.99 -3.92,-3.99 -3,0 -4.51,2.01 -4.51,4.21 0,1.79 -0.68,2.36 -1.72,2.36 h -1.65 V 17.73 h -2.29 v 10.43 h -2.83 c -0.17,-3.33 -1.65,-5.06 -3.84,-6.05 l 4.23,-2.56 v -2.27 l -6.87,4.31 v 1.68 c 2.76,0.64 4.15,2.2 4.24,4.89 h -6.41 v -6.35 h -2.29 v 6.35 h -7.25 v -5.97 c 0,0 -1.58,-0.6 -3.64,-0.6 -3.18,0 -4.58,2.08 -4.58,4.35 0,2.47 1.27,4.03 4.64,4.03 h 28.78 c 1.45,0 2.15,-0.54 2.47,-1.34 0.6,0.8 1.38,1.34 3.88,1.34 h 9.02 V 17.73 Z m -40.5,10.43 h -1.11 c -1.82,0 -2.6,-0.85 -2.6,-2.43 0,-1.35 0.76,-2.34 2.06,-2.34 0.99,0 1.65,0.31 1.65,0.31 z m 35.08,0 h -1.32 c -1.81,0 -2.6,-0.8 -2.6,-2.43 0,-1.35 0.76,-2.34 2.06,-2.34 1.16,0 1.86,0.73 1.86,2.47 z"
   id="path50" />
					<path
   class="st1"
   d="m 161.83,17.73 h 2.29 v 12.23 h -2.29 z"
   id="path51" />
					<path
   class="st1"
   d="m 175.96,18.37 c -0.62,0 -1.13,0.52 -1.13,1.13 0,0.61 0.48,1.13 1.13,1.13 0.62,0 1.13,-0.52 1.13,-1.13 -0.01,-0.62 -0.53,-1.13 -1.13,-1.13 z m -2.78,0 c -0.62,0 -1.13,0.52 -1.13,1.13 0,0.61 0.47,1.13 1.13,1.13 0.64,0 1.13,-0.51 1.13,-1.13 0,-0.64 -0.51,-1.13 -1.13,-1.13 z"
   id="path52" />
					<path
   class="st1"
   d="m 187.73,19.74 c -0.97,0 -1.25,-0.24 -1.25,-0.64 0,-0.33 0.26,-0.59 0.85,-0.59 0.45,0 0.85,0.09 0.94,0.1 l 0.22,-1.21 c -0.12,-0.02 -0.55,-0.1 -1.02,-0.1 -1.82,0 -2.55,0.93 -2.55,1.79 0,0.31 0.17,0.62 0.44,0.76 -0.24,-0.06 -0.66,-0.1 -1.05,-0.1 V 21 h 4.48 v -1.25 h -1.06 z"
   id="path53" />
					<path
   class="st1"
   d="m 194.05,31.23 c -0.62,0 -1.13,0.5 -1.13,1.12 0,0.61 0.48,1.13 1.13,1.13 0.62,0 1.13,-0.52 1.13,-1.13 0,-0.62 -0.52,-1.12 -1.13,-1.12 z m -2.78,0 c -0.62,0 -1.13,0.5 -1.13,1.12 0,0.61 0.48,1.13 1.13,1.13 0.62,0 1.13,-0.52 1.13,-1.13 0,-0.62 -0.52,-1.12 -1.13,-1.12 z"
   id="path54" />
					<path
   class="st1"
   d="m 210.45,17.73 v 10.43 h -2.78 v -0.05 c 0,-5.07 -2.47,-7.13 -6.8,-7.13 -1.39,0 -2.97,0.28 -4.22,0.68 l 0.22,1.79 c 1.09,-0.37 2.52,-0.68 3.71,-0.68 3.43,0 4.9,1.59 4.9,5.19 v 0.21 h -1.74 v -0.4 c 0,-1.96 -0.87,-3.66 -3.19,-3.66 -2.1,0 -3.33,1.23 -3.33,2.92 0,0.73 0.35,1.14 0.42,1.23 -0.07,-0.01 -0.37,-0.08 -0.78,-0.08 h -3.04 v -6.35 h -2.29 v 6.35 h -3.58 v -6.35 h -2.29 v 6.35 h -7.25 v -5.97 c 0,0 -1.58,-0.6 -3.65,-0.6 -3.17,0 -4.58,2.08 -4.58,4.35 0,2.47 1.27,4.03 4.63,4.03 h 37.91 V 17.73 Z M 176.2,28.16 h -1.11 c -1.83,0 -2.6,-0.85 -2.6,-2.43 0,-1.35 0.76,-2.34 2.06,-2.34 0.99,0 1.65,0.31 1.65,0.31 z m 25.67,0.07 h -1.14 c -0.89,0 -1.65,-0.39 -1.65,-1.37 0,-0.73 0.51,-1.18 1.3,-1.18 1.02,0 1.5,0.71 1.5,2.05 v 0.5 z"
   id="path55" />
					<path
   class="st1"
   d="m 215.51,17.73 h 2.29 v 12.23 h -2.29 z"
   id="path56" />
					<path
   class="st1"
   d="m 23.04,37.42 c -0.62,0 -1.13,0.52 -1.13,1.12 0,0.61 0.49,1.13 1.13,1.13 0.62,0 1.13,-0.52 1.13,-1.13 0,-0.62 -0.52,-1.12 -1.13,-1.12 z m -2.78,0 c -0.62,0 -1.12,0.52 -1.12,1.12 0,0.61 0.46,1.13 1.12,1.13 0.64,0 1.13,-0.5 1.13,-1.13 0,-0.63 -0.5,-1.12 -1.13,-1.12 z"
   id="path57" />
					<path
   class="st1"
   d="m 40.68,40.16 -2.24,0.31 c 0.3,1.32 0.51,2.92 0.51,4.65 0,0.54 -0.03,1.38 -0.1,2.08 h -0.47 c -1.6,0 -2.06,-0.28 -2.06,-1.65 V 41.2 h -2.2 v 3.92 c 0,1.68 -0.51,2.22 -1.41,2.22 -1.02,0 -1.2,-0.68 -1.2,-2.24 v -3.21 h -2.29 v 3.16 c 0,1.7 -0.44,2.15 -1.56,2.15 H 25.5 v -5.97 c 0,0 -1.58,-0.61 -3.64,-0.61 -3.18,0 -4.58,2.08 -4.58,4.36 0,2.47 1.27,4.02 4.63,4.02 h 5.73 c 1.27,0 1.96,-0.42 2.31,-1.21 0.28,0.83 1.2,1.35 2.33,1.35 1.36,0 2.27,-0.59 2.62,-1.34 0.51,0.96 1.43,1.2 3.25,1.2 h 2.86 c 0.16,-1.23 0.24,-2.78 0.24,-4.04 -0.01,-1.72 -0.24,-3.41 -0.57,-4.8 z m -17.4,7.05 h -1.11 c -1.82,0 -2.6,-0.85 -2.6,-2.43 0,-1.36 0.76,-2.34 2.06,-2.34 0.99,0 1.65,0.31 1.65,0.31 z"
   id="path58" />
					<path
   class="st1"
   d="m 55.54,37.42 c -0.62,0 -1.13,0.52 -1.13,1.12 0,0.61 0.47,1.13 1.13,1.13 0.64,0 1.13,-0.5 1.13,-1.13 -0.01,-0.63 -0.51,-1.12 -1.13,-1.12 z m 2.77,0 c -0.62,0 -1.13,0.52 -1.13,1.12 0,0.61 0.48,1.13 1.13,1.13 0.62,0 1.13,-0.52 1.13,-1.13 0,-0.62 -0.52,-1.12 -1.13,-1.12 z"
   id="path59" />
					<path
   class="st1"
   d="m 75.36,36.78 v 10.43 h -3.17 v -2.59 c 0,-2.42 -1.21,-3.99 -3.92,-3.99 -3.01,0 -4.51,2.02 -4.51,4.22 0,1.79 -0.67,2.36 -1.72,2.36 h -0.6 c -0.61,0 -1.34,0.08 -1.34,0.08 0.66,-0.55 1,-1.61 1,-2.62 0,-2.76 -1.58,-4.04 -4.02,-4.04 -2.64,0 -4.42,1.82 -4.42,4.32 0,0.99 0.28,1.8 0.82,2.34 0,0 -0.54,-0.08 -1.08,-0.08 h -1.75 c -0.21,-3.87 -2.2,-5.83 -5.78,-6.77 l -0.55,1.91 c 2.74,0.69 3.99,2.29 4.09,4.86 h -5.14 v 1.8 h 19.02 c 1.46,0 2.15,-0.53 2.47,-1.34 0.61,0.8 1.39,1.34 3.88,1.34 h 9.02 V 36.78 Z M 56.87,47.21 c -1.27,0 -1.91,-0.82 -1.91,-2.45 0,-1.63 0.96,-2.32 1.95,-2.32 1.3,0 1.9,0.83 1.9,2.35 0,1.61 -0.84,2.42 -1.94,2.42 z m 13.08,0 h -1.32 c -1.8,0 -2.6,-0.8 -2.6,-2.43 0,-1.36 0.76,-2.34 2.06,-2.34 1.16,0 1.86,0.73 1.86,2.46 z"
   id="path60" />
					<path
   class="st1"
   d="m 80.43,36.78 h 2.29 v 12.23 h -2.29 z"
   id="path61" />
					<path
   class="st1"
   d="m 104.01,47.21 v 1.8 h -10.5 v 0.07 c 0,2.22 -0.76,4.34 -4.29,4.34 -0.53,0 -1.04,-0.07 -1.45,-0.17 l 0.17,-1.83 c 0.42,0.12 0.85,0.21 1.41,0.21 1.18,0 1.87,-0.56 1.87,-2.43 v -8.34 h 2.29 v 6.35 h 4.23 c -0.76,-0.46 -1.34,-1.43 -1.34,-2.59 0,-2.15 1.47,-3.99 4.53,-3.99 1.18,0 2.15,0.33 2.15,0.33 l -0.4,1.82 c 0,0 -0.8,-0.37 -1.8,-0.37 -1.3,0 -2.19,0.87 -2.19,2.2 0,1.47 1.2,2.59 3.95,2.59 h 1.37 z"
   id="path62" />
					<path
   class="st1"
   d="m 116.41,37.5 c -0.62,0 -1.13,0.52 -1.13,1.13 0,0.62 0.51,1.13 1.13,1.13 0.61,0 1.13,-0.52 1.13,-1.13 0,-0.62 -0.52,-1.13 -1.13,-1.13 z m 1.44,-2.27 c -0.62,0 -1.13,0.52 -1.13,1.13 0,0.62 0.51,1.13 1.13,1.13 0.62,0 1.13,-0.53 1.13,-1.13 0,-0.63 -0.51,-1.13 -1.13,-1.13 z m 1.43,2.27 c -0.61,0 -1.13,0.52 -1.13,1.13 0,0.62 0.52,1.13 1.13,1.13 0.62,0 1.12,-0.52 1.12,-1.13 0,-0.62 -0.5,-1.13 -1.12,-1.13 z"
   id="path63" />
					<path
   class="st1"
   d="m 138.81,36.78 v 10.43 h -3.18 v -2.59 c 0,-2.42 -1.21,-3.99 -3.92,-3.99 -3.01,0 -4.51,2.02 -4.51,4.22 0,1.79 -0.67,2.36 -1.72,2.36 h -1.57 c 0.05,-0.77 0.07,-1.54 0.07,-2.24 0,-1.72 -0.23,-3.41 -0.56,-4.81 l -2.24,0.31 c 0.3,1.32 0.51,2.92 0.51,4.65 0,0.54 -0.03,1.38 -0.1,2.08 h -0.47 c -1.59,0 -2.06,-0.28 -2.06,-1.65 V 41.2 h -2.2 v 3.92 c 0,1.68 -0.51,2.22 -1.41,2.22 -1.02,0 -1.2,-0.68 -1.2,-2.24 v -3.21 h -2.29 v 3.16 c 0,1.7 -0.43,2.15 -1.56,2.15 h -2.15 V 36.78 h -2.29 v 12.23 h 4.42 c 1.27,0 1.96,-0.42 2.31,-1.21 0.28,0.83 1.2,1.35 2.33,1.35 1.36,0 2.27,-0.59 2.62,-1.34 0.51,0.96 1.43,1.2 3.25,1.2 h 4.86 c 1.45,0 2.15,-0.53 2.46,-1.34 0.61,0.8 1.39,1.34 3.88,1.34 h 9.02 V 36.78 Z m -5.41,10.43 h -1.32 c -1.8,0 -2.6,-0.8 -2.6,-2.43 0,-1.36 0.76,-2.34 2.06,-2.34 1.16,0 1.86,0.73 1.86,2.46 z"
   id="path64" />
					<path
   class="st1"
   d="m 143.87,36.78 h 2.29 v 12.23 h -2.29 z"
   id="path65" />
					<path
   class="st1"
   d="m 148.61,53.15 0.14,-1.87 c 0,0 1.35,0.29 2.71,0.29 1.8,0 3,-0.68 3,-2.31 V 49 h -1.37 c -3.37,0 -4.63,-1.56 -4.63,-4.02 0,-2.27 1.41,-4.35 4.58,-4.35 2.06,0 3.64,0.61 3.64,0.61 v 7.81 c 0,2.39 -1.56,4.34 -5.43,4.34 -1.3,-0.01 -2.64,-0.24 -2.64,-0.24 z m 5.85,-10.41 c 0,0 -0.66,-0.31 -1.65,-0.31 -1.3,0 -2.06,0.99 -2.06,2.34 0,1.58 0.78,2.43 2.6,2.43 h 1.11 z"
   id="path66" />
					<path
   class="st1"
   d="m 168.49,37.42 c -0.62,0 -1.13,0.52 -1.13,1.12 0,0.61 0.49,1.13 1.13,1.13 0.63,0 1.13,-0.52 1.13,-1.13 0,-0.62 -0.52,-1.12 -1.13,-1.12 z m -2.78,0 c -0.62,0 -1.12,0.52 -1.12,1.12 0,0.61 0.46,1.13 1.12,1.13 0.64,0 1.13,-0.5 1.13,-1.13 0,-0.63 -0.5,-1.12 -1.13,-1.12 z"
   id="path67" />
					<path
   class="st1"
   d="m 178.33,40.63 c -3.01,0 -4.51,2.02 -4.51,4.22 0,1.23 0.33,1.99 0.96,2.47 -0.08,-0.02 -0.43,-0.11 -0.96,-0.11 h -2.86 v -5.97 c 0,0 -1.58,-0.61 -3.64,-0.61 -3.18,0 -4.58,2.08 -4.58,4.36 0,2.47 1.27,4.02 4.63,4.02 h 14.89 v -4.39 c -0.01,-2.43 -1.22,-3.99 -3.93,-3.99 z m -9.6,6.58 h -1.11 c -1.82,0 -2.6,-0.85 -2.6,-2.43 0,-1.36 0.76,-2.34 2.06,-2.34 0.99,0 1.65,0.31 1.65,0.31 z m 11.28,0 h -1.32 c -1.8,0 -2.6,-0.8 -2.6,-2.43 0,-1.36 0.76,-2.34 2.06,-2.34 1.16,0 1.86,0.73 1.86,2.46 z"
   id="path68" />
					<path
   class="st1"
   d="m 210.44,36.78 v 10.43 h -3.17 v -2.59 c 0,-2.42 -1.21,-3.99 -3.92,-3.99 -3.01,0 -4.51,2.02 -4.51,4.22 0,1.79 -0.67,2.36 -1.72,2.36 h -0.9 c -0.17,-3.33 -1.65,-5.07 -3.84,-6.06 l 4.24,-2.55 v -2.27 l -6.88,4.3 v 1.68 c 2.76,0.64 4.15,2.2 4.24,4.9 h -5.99 v -6.35 h -2.29 v 8.34 c 0,1.87 -0.7,2.43 -1.88,2.43 -0.55,0 -0.99,-0.09 -1.41,-0.21 l -0.17,1.83 c 0.42,0.1 0.92,0.17 1.45,0.17 3.52,0 4.29,-2.12 4.29,-4.34 v -0.07 h 9.37 c 1.46,0 2.15,-0.53 2.47,-1.34 0.61,0.8 1.39,1.34 3.88,1.34 h 9.02 V 36.78 Z m -5.41,10.43 h -1.32 c -1.8,0 -2.6,-0.8 -2.6,-2.43 0,-1.36 0.77,-2.34 2.07,-2.34 1.16,0 1.86,0.73 1.86,2.46 v 2.31 z"
   id="path69" />
					<path
   class="st1"
   d="m 215.51,36.78 h 2.29 v 12.23 h -2.29 z"
   id="path70" />
				</g>
			</g>
		</g>
		<g
   id="g82"
   style="display:inline">
			<g
   id="g80">
				<g
   id="g79">
					<rect
   x="283.45999"
   y="72.580002"
   class="st1"
   width="3.46"
   height="3.46"
   id="rect72" />
					<rect
   x="283.45999"
   y="79.489998"
   class="st1"
   width="3.46"
   height="3.46"
   id="rect73" />
					<path
   class="st1"
   d="m 255.81,65.66 v 13.82 h -3.46 V 72.57 H 235.07 V 82.94 H 280 V 72.57 h -17.28 v 6.91 h -3.46 V 69.12 h 27.65 v -3.46 z m -6.91,13.83 h -10.37 v -3.45 h 10.37 z m 17.28,-3.46 h 10.37 v 3.45 h -10.37 z"
   id="path73" />
					<rect
   x="290.37"
   y="31.1"
   class="st1"
   width="3.46"
   height="3.46"
   id="rect74" />
					<rect
   x="297.29001"
   y="31.1"
   class="st1"
   width="3.46"
   height="3.46"
   id="rect75" />
					<path
   class="st1"
   d="M 290.38,38.01 V 55.3 h 6.91 v 3.45 H 286.92 V 31.1 h -3.45 v 31.11 h 13.82 v 3.45 h -6.91 v 17.28 h 10.37 V 38.01 Z m 6.91,41.48 h -3.46 V 69.12 h 3.46 z m 0,-27.65 h -3.46 V 41.47 h 3.46 z"
   id="path75" />
					<rect
   x="248.89999"
   y="24.190001"
   class="st1"
   width="3.46"
   height="3.46"
   id="rect76" />
					<rect
   x="248.89999"
   y="17.280001"
   class="st1"
   width="3.46"
   height="3.46"
   id="rect77" />
					<path
   class="st1"
   d="m 255.81,17.28 v 10.37 h 17.28 v -6.91 h 3.46 V 31.1 H 248.9 v 3.46 H 280 V 20.74 h 3.46 v 6.91 h 17.28 V 17.28 Z m 13.83,6.91 h -10.37 v -3.45 h 10.37 z m 27.65,0 h -10.37 v -3.45 h 10.37 z"
   id="path77" />
					<rect
   x="241.99001"
   y="65.660004"
   class="st1"
   width="3.46"
   height="3.46"
   id="rect78" />
					<rect
   x="235.08"
   y="65.660004"
   class="st1"
   width="3.46"
   height="3.46"
   id="rect79" />
					<path
   class="st1"
   d="m 238.53,38.01 v -3.45 h 6.91 V 17.28 h -10.37 v 44.93 h 10.37 V 44.93 h -6.91 v -3.45 h 10.37 v 27.65 h 3.45 V 38.01 Z m 0,-17.27 h 3.46 V 31.1 h -3.46 z m 3.46,27.64 v 10.37 h -3.46 V 48.38 Z"
   id="path79" />
				</g>
			</g>
			<g
   id="g81">
				<path
   class="st0"
   d="m 272.33,46.03 c 0.34,0.72 0.54,1.52 0.62,2.27 -0.84,-1.08 -1.85,-2.03 -2.94,-2.75 0.09,0.12 0.18,0.25 0.26,0.38 0.89,1.45 0.74,3.36 0.22,4.91 -0.32,-1.46 -0.88,-2.88 -1.6,-4.1 -0.17,-0.28 -0.34,-0.55 -0.53,-0.82 l 0.26,6.53 c 0,0.23 -0.27,0.65 -0.72,0.65 -0.45,0 -0.72,-0.41 -0.72,-0.65 l 0.26,-6.52 c -0.19,0.26 -0.37,0.53 -0.53,0.81 -0.72,1.22 -1.28,2.64 -1.6,4.1 -0.51,-1.55 -0.67,-3.47 0.22,-4.91 0.08,-0.13 0.17,-0.26 0.26,-0.38 -1.08,0.72 -2.1,1.67 -2.94,2.75 0.17,-1.5 0.78,-3.2 2.12,-4.05 0.45,-0.28 0.93,-0.47 1.43,-0.57 0,-0.03 0,-0.02 0,-0.05 -0.29,0.02 -0.57,0.04 -0.86,0.09 -1.25,0.19 -2.45,0.55 -3.6,1.09 0.84,-1.28 2.17,-2.24 3.42,-2.41 0.2,-0.03 0.41,-0.04 0.62,-0.03 -0.75,-0.38 -1.57,-0.7 -2.41,-0.92 1.14,-0.31 2.38,-0.24 3.45,0.23 0.31,-1.32 0.87,-2.1 0.87,-2.1 0,0 0.56,0.78 0.87,2.1 1.07,-0.48 2.31,-0.54 3.45,-0.23 -0.84,0.22 -1.66,0.54 -2.41,0.92 0.21,-0.01 0.42,0 0.62,0.03 0.63,0.08 1.28,0.36 1.87,0.79 0.6,0.42 1.14,0.98 1.56,1.62 -1.15,-0.54 -2.35,-0.9 -3.6,-1.09 -0.29,-0.04 -0.57,-0.07 -0.86,-0.09 0,0.04 0,0.02 0,0.05 0.5,0.1 0.98,0.29 1.43,0.57 0.68,0.43 1.17,1.06 1.51,1.78 z"
   id="path80" />
				<path
   class="st0"
   d="m 280,50.54 c -1.33,-0.15 -2.73,0.13 -3.96,0.88 l -7.02,4.29 2.82,1.72 0.39,-0.64 c -0.01,0 -0.02,-0.01 -0.03,-0.01 -0.31,-0.19 -0.41,-0.61 -0.22,-0.92 0.19,-0.31 0.6,-0.41 0.92,-0.22 0.31,0.19 0.41,0.6 0.22,0.92 l -0.74,1.21 0.37,0.23 0.84,0.51 c 0.28,0.18 0.62,0.19 0.9,0.07 0.01,0.15 -0.01,0.3 -0.07,0.44 -0.02,0.05 -0.04,0.1 -0.08,0.15 -0.28,0.47 -0.9,0.62 -1.36,0.33 l -1.21,-0.74 -0.39,0.64 c 0.01,0 0.02,0.01 0.03,0.01 0.31,0.19 0.41,0.6 0.22,0.92 -0.19,0.31 -0.61,0.42 -0.92,0.22 -0.31,-0.2 -0.41,-0.61 -0.22,-0.92 l 0.74,-1.21 -3.32,-2.03 -3.32,2.03 0.74,1.21 c 0.19,0.31 0.09,0.73 -0.22,0.92 -0.31,0.19 -0.72,0.09 -0.92,-0.22 -0.19,-0.31 -0.09,-0.72 0.22,-0.92 0.01,0 0.02,-0.01 0.03,-0.02 l -0.39,-0.64 -1.21,0.74 c -0.47,0.29 -1.08,0.14 -1.37,-0.33 -0.03,-0.05 -0.05,-0.1 -0.08,-0.15 -0.05,-0.14 -0.08,-0.3 -0.07,-0.44 0.29,0.12 0.62,0.11 0.91,-0.07 l 0.84,-0.51 0.38,-0.23 -0.74,-1.21 c -0.19,-0.31 -0.09,-0.72 0.22,-0.92 0.31,-0.19 0.72,-0.09 0.92,0.22 0.19,0.31 0.09,0.73 -0.22,0.92 -0.01,0 -0.02,0.01 -0.03,0.01 l 0.39,0.64 2.82,-1.72 -7.02,-4.29 c -1.23,-0.75 -2.63,-1.03 -3.96,-0.88 1.32,-0.9 3.11,-1.01 4.57,-0.11 l 7.53,4.6 7.53,-4.6 c 1.43,-0.88 3.22,-0.78 4.54,0.12 z"
   id="path81" />
			</g>
		</g>
	</g>

</svg>
